<?xml version="1.0" encoding="UTF-8"?>
<svg version="1.1" viewBox="0 0 900 900" width="1280" height="1280" xmlns="http://www.w3.org/2000/svg">
<path transform="translate(0)" d="m0 0h900v900h-900z" fill="#FCFDFD"/>
<path transform="translate(0)" d="m0 0h900v900h-900zm445 90-30 2-26 3-29 6-23 6-31 11-24 11-23 12-18 11-17 12-18 14-11 10-8 7-19 19-9 11-7 8-10 13-18 27-11 19-11 23-11 28-7 22-7 29-4 25-2 25v41l3 32 4 23 8 32 8 24 12 28 10 19 10 17 12 18 12 16 11 13 9 11 20 20 11 9 10 9 19 14 18 12 17 10 17 9 25 11 28 10 21 6 23 5 25 4 18 2h55l20-2 31-5 28-7 30-10 24-10 24-12 25-15 16-11 14-11 13-11 10-8v-2l4-2 12-12 7-8 12-14 15-20 12-18 15-26 10-21 10-25 8-26 6-25 4-23 2-19 1-16v-31l-4-40-5-26-6-23-10-30-11-25-10-20-13-21-11-16-10-13-9-11-9-10-12-13-7-6-5-5-11-10-11-9-16-12-16-10-13-8-24-13-30-13-27-9-32-8-23-4-29-3z" fill="#000356"/>
<path transform="translate(438,129)" d="m0 0h21l12 3 11 5 9 5 3 2v2l4 2 12 10v2l3 1 11 14 9 13 9 16 10-2 22-5 8-1h32l18 4 13 5 11 7 12 12 8 14 5 14 2 12v30l-3 20-3 12-1 7 6 2 22 14 14 11 12 12 9 11 9 17 4 16v17l-4 16-7 14-10 13-9 10-11 9-11 8-13 8-11 6h-2l4 14 4 20 1 7v30l-3 16-6 15-8 11-9 10-9 6-14 6-16 4-5 1h-26l-25-4-16-4h-5l-8 14-8 12-10 13-8 8-11 9-13 8-8 4-11 4-7 1h-18l-15-4-17-8-9-7-11-10-5-5-12-14-12-20-4-4-26 6-12 2-20 1-16-1-17-4-14-6-11-8-11-12-6-10-5-14-3-19v-18l3-24 6-24v-4l-16-9-16-11-11-10-5-5-8-9-8-12-6-15-2-8v-22l4-15 8-15 7-9 9-10 8-7 12-9 10-7 13-8-1-8-5-21-2-21v-17l2-15 5-15 7-12 9-10 8-7 10-6 18-6 13-2h24l17 2-3 3-3 1 2 2h-42l-16 4-14 7-12 9-9 14-5 12-3 14v29l3 19 4 17v3l32-13 30-10 28-7 2-1 12-41 9-26 9-21v-3l4 1 2 3 2 1-8 17-6 15-10 31-6 22 16-3 11-2h7v2l-8 1-1 3h6v1l-25 4-7 2-5 26-3 22v6l15-16 26-26 8-7 4-2v-2l8-7 2-2h-15l1-2h18l3 6-11 10-11 9-34 34-7 8-8 9-2 11-1 18v47l2 30 6 8 11 12 9 9 7 8 13 12 11 11 8 7 9 7 6 2 11 1h81l15-1 6-4 13-12 8-7 5-5 10-9 10-10 1-2h2l2-4 16-17 2-3 2-27v-62l-1-18 4-5 3 1 7 8 9 11 8 11 13 18v2h2l2-5 13-22 14-28 9-23 2-8-5-1-25-10-30-10-5-2v-2h2l1-3 7 1 22 7 19 7 14 6h3l5-22 2-15v-21l-3-17-6-16-9-12-8-7-14-8-13-4-11-2h-25l-26 4-15 4 9 20 8 21 10 34 2 11-9 1 2-1-9-32-7-21-10-24-3-6-5 1-21 8-29 14-25 14-2 3-11-3-4-2h-3l-1-7 10 5h4l24-14 19-10 19-8 20-8-4-10-9-14-13-16-10-10-18-13-16-6-16-2-15 2-17 6-12 8-13 12-9 10-9 13-10 16-1 3-2-1-3-3 1-5 10-16 10-13 9-10 9-9 18-12 15-6z" fill="#000132"/>
<path transform="translate(446,135)" d="m0 0 14 1 18 6 16 11 12 11 10 11 8 11 9 15 2 6-8 4-25 10-17 8-23 13-11 7-5-2-7-4 1 6h3l11 3h2l26-15 24-12 30-12 4 1 8 17 10 27 9 32 1 7 6-1-4-16-8-28-6-16-9-21-2-4 9-3 14-3 19-3h25l18 4 12 5 13 9 9 10 6 10 5 16 2 13v21l-4 25-3 12-4 1-19-8-19-7-20-6h-4l-1 2h-2l1 2 26 8 21 8 17 7-1 8-10 25-15 30-13 21-1 2h-2l-9-13-21-28-7-7v-2h-3l-3 4 1 18v62l-2 27-7 8-13 14-1 2h-2l-2 4-16 16-8 7-15 14-10 8-2 1-15 1h-81l-11-1-9-4-12-11-8-7-13-13-8-7-14-15-8-8-8-10-1-2-2-30v-47l1-18 2-11 14-15 7-8 31-31 11-9 8-7-1-3-2-1 1-2-18 1h4 11l-6 7-3 3h-2v2l-8 7-12 11-26 26-7 8h-1l1-14 5-32 2-9 8-3 20-3-1-4 7-2 2 1v-2l-31 5h-3l2-10 7-25 9-26 11-24h-2l-2-4h-2l-3 9-10 25-10 31-7 25-7 3-27 7-30 10-26 11h-3l-4-15-3-15-1-9v-29l3-14 5-12 7-11 5-6 13-9 11-5 16-4h39l1-2 4-2 12 1 20 5v-2l4 2 2 3 1-5 7-11 9-13 9-11 11-11 12-9 10-5 12-4z" fill="#010123"/>
<path transform="translate(0)" d="m0 0h900v410l-1 23-1 6h-1l-2-36-5-29-4-17-8-28-10-28-14-31-10-19-10-17-8-12-13-19-13-16-8-10-15-16-24-24-11-9-16-13-19-14-19-12-15-9-23-12-20-9-25-10-25-8-22-6-27-6-39-5-20-1h-48l-26 2-34 5-48 12-29 10-21 9-16 7-19 10-20 12-24 16-16 12-11 9-13 11-12 12h-2v2l-8 7-9 10-11 12-11 14-12 16-12 18-8 13-13 24-8 16-12 29-11 33-6 24-4 19-4 29-3 30h-1z" fill="#FDFDFD"/>
<path transform="translate(429,293)" d="m0 0h47l23 1 7 4 24 22 15 14 12 12 7 8 14 14 2 4 2 20v62l-2 27-7 8-13 14-1 2h-2l-2 4-16 16-8 7-15 14-10 8-2 1-15 1h-81l-11-1-9-4-12-11-8-7-13-13-8-7-14-15-8-8-8-10-1-2-2-30v-47l1-18 2-11 14-15 7-8 31-31 11-9 10-9 7-5 3-1z" fill="#9FC1ED"/>
<path transform="translate(285,194)" d="m0 0h24l17 2-3 3-3 1 2 2h-42l-16 4-14 7-12 9-9 14-5 12-3 14v29l3 19 4 17v3l32-13 30-10 28-7 2-1 12-41 9-26 9-21v-3l4 1 2 3 2 1-8 17-6 15-10 31-6 22 16-3 11-2h7v2l-8 1-1 3h6v1l-25 4-7 2-5 26-3 22v6l15-16 26-26 8-7 4-2v-2l8-7 2-2h-15l1-2h18l3 6-11 10-11 9-34 34-7 8-8 9-2 11-1 18v47l2 30 6 8 11 12 9 9 7 8 13 12 5 5-1 7-4-2-13-12-19-19v-2l-4-2-7-8v-2h-2l7 44 1 8-3 7-1-2-1 1 7 27 9 29 9 22 6 13v3l-21 5-11 2-11 1h-23l-17-3-3 1v3h-6l-14-7-9-7-10-11-6-10-5-14-3-19v-18l3-24 6-24v-4l-16-9-16-11-11-10-5-5-8-9-8-12-6-15-2-8v-22l4-15 8-15 7-9 9-10 8-7 12-9 10-7 13-8-1-8-5-21-2-21v-17l2-15 5-15 7-12 9-10 8-7 10-6 18-6z" fill="#000132"/>
<path transform="translate(0,481)" d="m0 0h1l4 42 4 25 6 27 8 26 10 29 13 28 14 27 13 21 14 20 11 14 11 13 8 9v2h2l7 8 15 15 8 7 14 12 13 10 19 14 21 13 17 10 15 8 27 12 24 9 21 7 19 5 19 3v2l-7 1h-351z" fill="#FDFDFD"/>
<path transform="translate(898,488)" d="m0 0h1l1 29v383h-352l-7-1 1-2 20-3 31-9 20-7 26-11 19-9 23-13 15-9 16-11 19-14 13-11 14-12 7-7 7-6 7-8 8-8 9-11 11-13 13-18 12-18 13-22 11-21 11-25 9-24 8-26 7-30 4-24 2-33z" fill="#FDFDFD"/>
<path transform="translate(124,515)" d="m0 0 7 1 7 6 7 1 4 1 3 11h6l2 6 1 10h5l1 3-3 8-5 7-1 3v14l1 3 9-1 2-4 3-5 4 2 3 3-1 4-10 6v3l9 1 7 6h9l5 4 2 6 8 4 3 5 1 8 7 3v6l-7 14v8l3 10 4 4 5-2 4-4 4-6h5l1 1-1 7-8 8-2 4 10-1 11 4 8-1 5 2 3 5 9 3 5 6 2 5 7 2v10l-2 11 4 9 2 4 8 1 3-2 4-10 2-2 6 1 1 5-3 5-3 1v2l-3 3-1 2 22-2 7-4 5 1 4 3h15l4 5 1 3h6l3-1 3 1 3 7 3 15 4 6 13 9 2 1-1-7 3-9 6-5 8 1 4 2h5l2-4 3-3 7 1v2l5-1 7-6 5 2 5 3h2l2-5 3-1v-2l4-1 6 4 5-2h8l2 1 5 16 1 7v7l12-4 11-6 5-4 11-9 1-2h2l2-4 5-8 9-4 19-5 18-7 6-2 2 5h7l5-1h7l-2 11 5 1v3l-9 11-9 8-13 9-10 4-16 3-22 2-16 2-25 1-7-2 1 4 12 5 4 5 1 4-1 1-17 1-9 4-4 6-7 2-6-1-5-1-5 7h-7l-18-8-4-1h-26l-2-11 3-5-1-6-3-5-7-1h-16l-17 2-5 1-1 5-4 2-5-1-5-4-6-1-9-1-3-4-1-10-9 1-5-5-4-9-1-2-1-9-2-2-8 7-5 4-6-2v-2h-2l1-3 9-4 3-5-1-5-11-4-16-4-9 1-6 2-6-9-9-3-2-6 1-9-7-1-3-5v-19l-6 1-6 7-4 1-6-5v-3l10-4h2l1-8-8-7-15-8-6-2h-7l-4 1-5-3v-8l-8-4-2-2v-7l2-5v-3l-6-3v-9l3-10 1-7-7 3-4 3-6 2-4-4 1-5 8-2 5-3-1-5-5-5-8-5-9-4-5 1-3 1-4-4-2-8-7-4 1-9 3-7-4-2-1-1v-8l6-13 4-6z" fill="#87B81F"/>
<path transform="translate(563,553)" d="m0 0h5l-1 9-9 31-4 12-5 12-8 18-3 4-12-3-28-12-6-2-1 7 3-1 18 8 14 6 8 2-1 6-8 14-10 13-8 10-8 7-11 9-15 9-14 3h-24l-13-4-15-9-11-9-11-11-14-19-8-14v-3l25-10 18-8h2l2 34h40l4-2-5-1h-31l-4-1-1-18v-32l1-12 19-1 13 1-1 13-5 17-1 10h12v-45h-18v-13l1-1 18-1v-2l-1-1-36-1-11-8-2-3 35 1h27l31-1-2 4-8 6-2 1h11l12-11 17-3z" fill="#9BBDEA"/>
<path transform="translate(673,338)" d="m0 0 8 4 16 10 13 10 12 11 9 10 9 16 4 11 2 10v11l-4 16-9 17-10 11-5 6-8 7-8 6-15 10-13 7-3-1-9-22-7-16-12-22-11-18-3-4 2-5 14-24 13-25 10-24z" fill="#FCFDFD"/>
<path transform="translate(229,520)" d="m0 0 6 1 24 10 30 10 19 5 12 3 3 9 7 26 10 30 12 27v3l-21 5-11 2-11 1h-23l-17-3-14-5-13-9-10-11-8-16-3-11-1-9v-28l3-18 5-19z" fill="#FCFDFD"/>
<path transform="translate(446,135)" d="m0 0 14 1 18 6 16 11 12 11 10 11 8 11 9 15 2 6-8 4-25 10-17 8-23 13-11 7-5-2-19-11-20-11-27-12-18-7 1-5 7-11 9-13 9-11 11-11 12-9 10-5 12-4z" fill="#FCFCFD"/>
<path transform="translate(318,492)" d="m0 0h2l8 10 30 30 9 7-1-5 3-1 14 13 8 6 6 2 11 1h96v2h-5l1 5h-2v2h2l1 3-7 6h-12l3-3 9-7 1-2-4 1-27 1h-27l-34-1 10 8 2 1 36 1 4 4-3 1-18 1-1 13h18v45h-12v-10l5-17 2-13h-32v62h35l6 2-1 2-4 1h-40l-1-1-1-14v-20l-29 13-14 5h-2l7 14 13 18 11 12 9 8 9 6 13 8 4 4 7 2 1 2h-7l-13-5-13-7-14-12-6-5-16-20-12-20-2-1-26 6-12 2-20 1-16-1-17-4 1-5 5-1 17 3h23l16-2 23-5h4l-5-12-8-18-10-30-7-26-2-9 3-1 2-4-2-13-5-33z" fill="#000133"/>
<path transform="translate(666,521)" d="m0 0 3 1 6 26 2 16v21l-3 17-4 11-7 11-8 9-13 9-16 6-10 2-21 1-20-2-20-4-9-3 1-6 8-19 9-25 8-28 3-12 5-3 32-8 33-11z" fill="#FCFDFD"/>
<path transform="translate(280,201)" d="m0 0h35l23 4 12 3 1 3-10 24-12 36-8 28-7 3-27 7-30 10-26 11h-3l-4-15-3-15-1-9v-29l3-14 5-12 7-11 5-6 13-9 11-5z" fill="#FCFDFD"/>
<path transform="translate(222,341)" d="m0 0 4 1 8 20 14 29 10 18 10 16-1 4-14 24-14 27-7 15-5 14-5-1-15-9-14-10-13-12-9-10-9-15-4-10-2-13v-10l2-11 4-10 8-14 11-13 11-10 17-12z" fill="#FCFCFD"/>
<path transform="translate(587,202)" d="m0 0h25l18 4 12 5 13 9 9 10 6 10 5 16 2 13v21l-4 25-3 12-4 1-19-8-19-7-28-8-24-6-3-7-4-16-8-27-10-25-6-13 9-3 14-3z" fill="#FCFDFD"/>
<path transform="translate(597,738)" d="m0 0 3 1 1 4h7l5-1h7l-2 11 5 1v3l-9 11-9 8-13 9-10 4-16 3-22 2-16 2-25 1-7-2 1 4 12 5 4 5 1 4-1 1-17 1-9 4-4 6-7 2-6-1-5-1-5 7h-7l-18-8-4-1h-26l-2-11 3-5-1-6-4-6-1-9 3-9 6-5 8 1 4 2h5l2-4 3-3 7 1v2l5-1 7-6 5 2 5 3h2l2-5 3-1v-2l4-1 6 4 5-2h8l2 1 5 16 1 7v7l12-4 11-6 5-4 11-9 1-2h2l2-4 5-8 9-4 19-5 18-7z" fill="#000356"/>
<path transform="translate(770,521)" d="m0 0 2 1 2 10h10l1 3v20l-2 11-5 9-10 13-5 5-12 8v4l11 1-1 4-3 3-9-3-11-2 3 9 10 4-1 5-7 14-8 12-9 8-9 5-12 5 2 3 10 5-1 3-6 1-9-5-8-1-1 1v7l8 2 1 2v6l-6 11-12 15-10 6-27 8-15 1 4 4 10 5v4l-2 1h-6l-5-4-8-4-3-1-7-8-5-4-1-3 5-4h3l4 8 7 4h4l3-27 5-10 9-6 9-5 14-10 3-1v-2l4-1 2 8 5-1 4-3-1-5-9-7v-3l6-4 3 6v2l4 2 4 1v-23l3-12 4-6 12-11 4-7 3-4h2l4 8 4-1 4-3-1-3-11-6-1-4 5-4 5 6 3 2h4l-2-11-2-8v-15l3-8 8-11 6-10 3-10 3 1 1 2 6-1 2-5z" fill="#87B81F"/>
<path transform="translate(438,129)" d="m0 0h21l12 3 11 5 9 5 3 2v2l4 2 12 10v2l3 1 11 14 9 13 9 16 10-2 22-5 8-1h32l18 4 13 5 11 7 12 12 8 14 5 14 2 12v30l-3 20-3 12-1 7 6 2 22 14 14 11 12 12 9 11 9 17 4 16v17l-4 16-7 14-10 13-9 10-11 9-11 8-13 8-11 6h-2l4 14 4 20 1 7v30l-3 16-6 15-8 11-9 10-9 6-11 5-5-1 1-2 7-1 1-4h2l2-4 11-8 9-11 6-12 4-16 1-7v-21l-3-22-4-16v-8-1l-4-5-10-24 1-4 5 1 6 12 5 13 5-2 15-8 10-7 10-8 9-8 9-11 6-9 6-13 3-13v-11l-2-10-4-11-9-16-14-15-12-10-15-10-15-9-3-2v-2l-5 1v-2l-5-1-25-10-30-10-5-2v-2h2l1-3 7 1 22 7 19 7 14 6h3l5-22 2-15v-21l-3-17-6-16-9-12-8-7-14-8-13-4-11-2h-25l-26 4-15 4 9 20 8 21 10 34 2 11-9 1 2-1-9-32-7-21-10-24-3-6-5 1-21 8-29 14-25 14-2 3-11-3-4-2h-3l-1-7 10 5h4l24-14 19-10 19-8 20-8-4-10-9-14-13-16-10-10-18-13-16-6-16-2-15 2-17 6-12 8-13 12-9 10-9 13-10 16-1 3-2-1-3-3 1-5 10-16 10-13 9-10 9-9 18-12 15-6z" fill="#000133"/>
<path transform="translate(429,293)" d="m0 0h47l23 1 7 4 24 22 15 14 5 5v19l-3 2-82-28-13-4v29l-2 4h-31l-16-1-1-3 9-7 7-6h2v-2l8-7 1-1-10 1-7 1h-18l1-5 9-12v-3l-16 8-9 4h-4l1-4 5-8h2l2-6 3-6 7-8 5-2z" fill="#FCFDFD"/>
<path transform="translate(796,2)" d="m0 0h15l13 4 8 4 10 9 6 9 3 8 1 14-3 14-6 9-7 8-11 7-9 3-6 1h-13l-9-2-12-6-11-10-6-10-3-11v-15l5-12 8-11 8-6 11-5z" fill="#FAFBFD"/>
<path transform="translate(577,306)" d="m0 0 8 1 24 6 30 10 27 11-1 8-10 25-15 30-13 21-1 2h-2l-9-13-21-28-7-7-2-10-5-38z" fill="#FCFCFD"/>
<path transform="translate(315,307)" d="m0 0h4l-1 11-3 16-4 36-7 9-11 14-13 17-7 10-3-3-16-26-11-23-10-23-2-8 16-8 29-11 34-10z" fill="#FBFCFD"/>
<path transform="translate(358,212)" d="m0 0 6 1 18 7 22 10 22 12 17 10v2l-11 7-14 10-13 10-10 8-46 6-21 3 2-10 7-25 9-26 11-24z" fill="#FBFCFD"/>
<path transform="translate(624,433)" d="m0 0 3 1 18 32 12 24 8 21-1 5-19 8-13 5-30 9-19 5-6 1 2-13 7-48 9-10 8-11 10-13 8-12z" fill="#FBFCFD"/>
<path transform="translate(536,213)" d="m0 0 4 1 8 17 10 27 9 32 1 7-23-3-33-4-10-2-7-6-17-13-14-10-8-6 5-4 23-13 22-11 20-8z" fill="#FBFCFD"/>
<path transform="translate(272,433)" d="m0 0h2l7 11 14 18 6 8v2h2l8 11 3 25 3 20 2 14-7-1-23-6-33-11-20-9-4-2 3-10 12-27 11-21 12-20z" fill="#FBFCFD"/>
<path transform="translate(328,551)" d="m0 0 13 2 27 4 21 3 9 6 10 9 1 2v38l-2 6-23 11-21 8h-5l-9-19-9-24-8-27-4-15z" fill="#9FC1EE"/>
<path transform="translate(446,135)" d="m0 0 14 1 18 6 16 11 12 11 10 11 8 11 9 15 2 6-6 3h-2l-2-3-8-4-10-8-5-5v-2l-6-3h-8l-21 6-5 1h-8l-3-5v-3l-4-1-15-5-6-1h-9l-9 1-11-4-9-7 6-7 11-10 11-7 17-6z" fill="#9FC1EE"/>
<path transform="translate(379,640)" d="m0 0 2 1 1 6 8 11 8 9 14 10 8 4 15 4h26l16-3 9-4 10-6h2v-2l5-4 5-5 8-10 4-6v-5l10 3 4 1-1 6-8 14-10 13-8 10-8 7-11 9-15 9-14 3h-24l-13-4-15-9-11-9-11-11-14-19-8-14v-3z" fill="#9FC1EE"/>
<path transform="translate(226,329)" d="m0 0 2 2h5l1 1h5v2l-6 3h-2l9 22 11 24 2 3-1 6-6-3-14-29-7-18-5 1-14 9-16 12-12 11-9 12-7 12-4 12-1 8v10l2 13 5 12 9 14 9 10 12 11 21 14 12 6 2-9 8-18 12-24 14-24 5-5 2-6 2 1 4 4 1 4-1-2v4l-2 1v-2l-5 5-13 23-11 21-13 31 6 2 21 9 33 11 23 6v2l5 1 2-4h2l1 5-2 6-1-2-8-1-21-5-26-8-25-10-13-5-2 9-5 23-1 8v28l2 13 4 12 7 12 9 10 12 8 11 4v6h-6l-14-7-9-7-10-11-6-10-5-14-3-19v-18l3-24 6-24v-4l-16-9-16-11-11-10-5-5-8-9-8-12-6-15-2-8v-22l4-15 8-15 7-9 9-10 8-7 12-9 10-7 17-10z" fill="#000131"/>
<path transform="translate(428,595)" d="m0 0 18 1-1 13-5 17-1 10h23l1-3-2-13-3-12v-13h30l1 1v60l-5 2-66 1-4-1-1-18v-32l1-12z" fill="#FAFCFD"/>
<path transform="translate(459,129)" d="m0 0h11l15 5 11 8 4 5 6 1 23-10 6-2 9-1 13 4 9 7 4 2 2 7 4 5 2 9v9l3 7 4 8v2h23v1l-26 1-17 3-20 5-4-1-11-19-10-14-8-10-8-7-10-8v-2l-20-10-9-3-6-1z" fill="#9FC1EE"/>
<path transform="translate(597,738)" d="m0 0 3 1 1 4h7l5-1h7l-2 11 5 1v3l-9 11-9 8-13 9-10 4-16 3-22 2-16 2-25 1-6-2 1-4v2l12-4 11-6 5-4 11-9 1-2h2l2-4 5-8 9-4 19-5 18-7z" fill="#87B81F"/>
<path transform="translate(502,288)" d="m0 0 36 4 27 4 4 1h6l8 3 15 3 6 3-1 3h-2v2l-8-1-16-4 3 12 5 34 1 18h-2l-4 4-5-8-18-18-7-8-2-4-4-2-8-8-8-7-17-16-9-7-5-3v-1l5-1z" fill="#000133"/>
<path transform="translate(406,628)" d="m0 0h2l2 34 82 1 1-4v-29h6l10 5 11 4 1 6-10 14-5 5h-2l-2 4-4 2v2l-13 8-13 4-11 2h-26l-17-5-12-7-11-9-8-9-7-11 1-6z" fill="#FBFDFD"/>
<path transform="translate(670,333)" d="m0 0 5 2h4l4 1 20 12 16 13 8 7 9 11 8 13 5 11 3 13v17l-4 16-7 14-10 13-9 10-11 9-11 8-13 8-11 6h-2l4 14 4 20 1 7v30l-3 16-6 15-8 11-9 10-9 6-11 5-5-1 1-2 7-1 1-4h2l2-4 11-8 9-11 6-12 4-16 1-7v-21l-3-22-4-16v-8-1l-4-5-10-24 1-4 5 1 6 12 5 13 5-2 15-8 10-7 10-8 9-8 9-11 6-9 6-13 3-13v-11l-2-10-4-11-9-16-14-15-12-10-15-10-15-9-3-2v-2l-3-1z" fill="#00012B"/>
<path transform="translate(563,553)" d="m0 0h5l-1 9-9 31-4 12-5 12-8 18-3 4-12-3-4-3 2-1 3-10v-19l-5-17-8-17-3-5v-2l-3 1-2-2 17-3z" fill="#9FC1EE"/>
<path transform="translate(150,232)" d="m0 0 2 1-2 4-10 13-15 23-11 19-11 23-11 28-7 22-7 29-4 25-2 25v41l3 32 4 23 8 32 8 24 12 28 10 19 10 17 12 18 12 16 11 13 9 11 19 19 11 9 10 9 19 14 18 12 17 10 17 9 25 11 13 5v1l-9-1-13-5-11-6-6-1-1-3-9-3-7-3-4-3-8-3-1-3-7-3v-2l-7-2-4-4-5-4v-2l-6-2-5-2-4-5-9-5-7-8-6-5-3-1v-3l-4-2-6-4v-3l-5-2-3-3-4-7v-2h-2l-5-5-4-3v-3l-3-1-3-6-5-5-2-4-4-4-1-3 1-2h-2v-2h-2l-3-5-2-1-3-7-3-1-5-10v-2h-2l-3-5-3-11-4-4-1-7-4-2-1-4-4-13-5-7-4-13-2-12-3-7-4-18-2-4-4-20-2-9v-9l-1-19-2-10v-4l-2-1 2-9 1-7 2-32 2-11 2-18v-5l-4-1-4 1 2-4 3-3 2-5 1-11 2 2 1 5 3 1 2-10 2-7 6-18 12-30 3-12h2l1-10-7 3v2l-6 1-8-3-2-2-6-2-6-7-1-8 2-10 7-10 5-1 1-2h9l8 2 5 5-5-2-6-2h-11l-6 4-5 10-1 7 4 9 5 4 9 3 8-1 6-3 5-8 1-3v-10l-1-4 4 4 2 8h3l2-5 4-2 5-9 5-6 3-5 7-8v-2z" fill="#000132"/>
<path transform="translate(390,562)" d="m0 0 4 1 13 11 2 3v38l-2 6-23 11-8 1-2-5-1-8v-18l4-16 8-16z" fill="#FAFCFD"/>
<path transform="translate(560,243)" d="m0 0h32l9 1 1 4-1 56 2 1-11-2-16-4-3-7-4-16-8-27z" fill="#9FC1EE"/>
<path transform="translate(505,562)" d="m0 0h6l11 21 4 12 2 8v19l-3 10-1 1-7-1-17-7-1-2-4-2-1-3-1-42 2-5z" fill="#FBFDFD"/>
<path transform="translate(541,648)" d="m0 0 8 1 13 3-2 2 1 3 6 4-1 9-3 6-3 4-12-1-21-1-5 4-2 5 2 10 3 10v6l-14 10-4 1-6-4-5-5-5-4-4-1 14-10 15-14 13-18z" fill="#9FC1EE"/>
<path transform="translate(611,197)" d="m0 0h9l15 4 12 5 10 7 11 11 8 14 5 14 2 12v30l-3 20-3 12-1 7 4 2-4 2-4-3h-5l-1 2v-2l-5-1-25-10-30-10-5-2v-2h2l1-3 7 1 22 7 19 7 14 6h3l5-22 2-15v-21l-3-17-6-16-9-12-8-7-14-8-13-4-20-4 2-2 6-1z" fill="#000130"/>
<path transform="translate(372,297)" d="m0 0h11l-6 7-3 3h-2v2l-8 7-12 11-26 26-7 8h-1l1-14 5-32 2-9 8-3z" fill="#9FC1EE"/>
<path transform="translate(514,296)" d="m0 0 23 2 31 5 2 1 6 32 2 14v9l-7-6-9-10-29-29-8-7-11-9z" fill="#9FC1EE"/>
<path transform="translate(587,381)" d="m0 0 5 5 12 15 13 19 3 4v5l-13 18-12 16-8 10-1-2 1-9 1-30v-24z" fill="#9FC1EE"/>
<path transform="translate(308,382)" d="m0 0h1v87l-6-5-14-19-8-11-4-6 1-4 8-12 10-14 8-10z" fill="#9FC1EE"/>
<path transform="translate(639,63)" d="m0 0 9 3 22 11 23 14 18 12 17 13 16 13 11 9 32 32 7 8 13 16 14 19 12 18 9 15 7 12 11 23 9 20 12 34 8 30 4 19 3 19v13h-1l-2-10-2-12-5-24-3-17-3-9-1-7-5-9-4-15-4-10-4-12-5-9-3-7-3-5v-3l-3-1-1-4-4-2-1-4-5-9v-2h-2l-5-13-5-5-3-6-3-5v-2l-3-1-1-4-5-3-5-8v-2h-2l-5-8-4-2-6-7-4-4-7-8-3-6-3-2v-2h-3l-4-4-6-5-5-5-3-5-5-3-7-6-3-2v-2l-4-1-11-8v-3l-6-2-8-6-8-3-3-5-5-2-9-7-6-4-3-3-9-3-3-3-13-5-5-4z" fill="#000131"/>
<path transform="translate(318,492)" d="m0 0h2l8 10 30 30 11 9 7 7 2 1v3l-14-1-32-5-6-2-5-25-3-21z" fill="#F9FBFD"/>
<path transform="translate(352,223)" d="m0 0 1 4h2l1-2 1 9 2 17v21l1 15 1 4 2 2-32 5h-3l2-10 7-25 9-26z" fill="#F8FAFD"/>
<path transform="translate(419,845)" d="m0 0h7l9 3 6 7 2 5v17l-3 8-7 6-13 1-9-3-6-6-1-5 4-1 9 2 4 4 5-1 4-7-4 1h-11l-6-5-3-6v-7l4-8 3-3z" fill="#F4F8FC"/>
<path transform="translate(331,481)" d="m0 0h16l5 3 3 12 1 7h20l3 9 4 16 1 2-2 7-3 4-5-2-19-19-8-7-14-15-4-4 1-11z" fill="#FAFCFD"/>
<path transform="translate(448,257)" d="m0 0 4 1 12 8 18 13 9 7v2h-84l4-5 11-8 14-10z" fill="#F6F9FC"/>
<path transform="translate(437,537)" d="m0 0h24l17 4 10 4 8 6v3l-7 2h-81l-4-2 4-6 12-6z" fill="#FBFCFD"/>
<path transform="translate(577,494)" d="m0 0h1l-1 14-4 26-2 11-19 4-25 3h-8l6-7 6-4 7-8 12-11 9-9 2-3h2l2-4z" fill="#FAFBFD"/>
<path transform="translate(549,480)" d="m0 0h12l4 4 3 7 2-1-2 5-8 8-1 2h-2l-2 4-16 16-16 14h-2l-1-9 2-29h17l3-10 3-9z" fill="#F9FBFD"/>
<path transform="translate(761,174)" d="m0 0h3l7 9-1 6-8 11 1 1 13-7 5 1 7 8-2 5-11 9-14 11-5-3-2-4 7-7 11-7 1-2-16 8-3 2-6-1-4-5 3-5 10-12h2l-1-2-10 8-6 5-5-1-3-3v-3h2l2-4 14-11z" fill="#F3F7FB"/>
<path transform="translate(87,251)" d="m0 0h11l9 4 5 5 2 4v10l-5 10-5 4-6 2-9-1-8-4-5-6-2-9 4-11 4-5z" fill="#F2F6FB"/>
<path transform="translate(315,307)" d="m0 0h4l-1 11-3 16-4 36-7 9-5 5-1-20 2-4-1-5-5-3-13-8v-2l-5-1-12-6 1-3 25 5 3 1 8 2 9 1-2-6-6-7-5-9-2-5-3-1z" fill="#9FC1EE"/>
<path transform="translate(306,65)" d="m0 0h15l6 5 4 8 1 8-2 7-4 5-8 4-3 1h-8l-10-6-4-8-1-9 3-8 6-5z" fill="#F1F6FB"/>
<path transform="translate(412,42)" d="m0 0h13l6 3 4 4 3 9-1 10-3 6-5 4-3 1h-15l-6-3-4-5-2-5v-10l3-8 7-5z" fill="#F0F5FB"/>
<path transform="translate(621,80)" d="m0 0h7l10 4 6 7 2 5-1 8-5 10-8 5h-10l-11-6-5-8v-9l4-8 5-5z" fill="#F1F6FB"/>
<path transform="translate(577,306)" d="m0 0 8 1 17 4-2 1v58l-1 14-12-12-2-10-5-38z" fill="#9FC1EE"/>
<path transform="translate(520,836)" d="m0 0h10l5 3 2 6-1 9-7 11-2 4 14-6 4 2 2 4v4l-8 4-19 6-8 2h-5v-7l5-10 9-12 2-4v-5l-1-1h-5l-2 3-1 5-2 1h-11v-7l6-8 5-3z" fill="#F1F6FB"/>
<path transform="translate(672,101)" d="m0 0 5 2 14 10 4 7v7l-5 9-5 6-10 2-9-3-14-9 2-5 10-14z" fill="#EFF5FB"/>
<path transform="translate(482,275)" d="m0 0 4 2 5 1 10 8 2 5-3 3h-71l-29 1-6 3-4 3h-2l-1-2-2-1 1-2-18 1-3 2h-12l1-4 6-1 2 1 1-3 32-4 15-12 2 1-1 2 3 1-1 3-5 4h80l3 1-5-5-4-3z" fill="#01011D"/>
<path transform="translate(444,479)" d="m0 0h11l5 1v6l-19 1-1 7-4 12-5 7-8 3-7-1-8-6-10-9-4-2-5 1-8 6h-2l1-9 5-12 3-4 18 1 4 9 5 10 21 1 2-10 2-9z" fill="#FCFDFE"/>
<path transform="translate(80,598)" d="m0 0 4 2 2 5-1 5-6 9-5 7 12-5h6l3 9-9 4-22 9h-4l-3-6v-5l9-12 3-5-15 6-4-1-2-8 3-3 21-8z" fill="#F2F7FB"/>
<path transform="translate(262,85)" d="m0 0h3l15 27 1 5-5 4h-7l-16-8 4 7 3 6v3l-6 4-4-1-16-28v-4l7-3 6 1 14 7-1-4-5-10 1-3z" fill="#F2F7FB"/>
<path transform="translate(820,256)" d="m0 0 3 1 3 6-1 6-5 10-3 5 5-2 9-5 3 1 3 6-1 4-17 9-12 6-4-2-2-4v-6l5-9 4-7-15 7h-2l-4-6v-4l27-14z" fill="#F2F7FB"/>
<path transform="translate(819,605)" d="m0 0 7 1 20 8 8 4-2 6-3 4-12 3h-8v3l11 3 4 2-1 7-4 3-17-6-14-6-1-5 4-6 20-5-15-6 1-6z" fill="#F1F6FC"/>
<path transform="translate(473,42)" d="m0 0h11l8 3 5 6-1 4h-9l-5-3-7 1-3 6 1 8 4 4h7l3-4h-6l-3-2 1-6 1-1 11 1 6 2v10l-2 5-5 3-4 1h-12l-8-3-5-6-2-6 1-10 4-8 5-4z" fill="#EFF5FB"/>
<path transform="translate(40,352)" d="m0 0 11 1 15 3 6 5 3 10-2 9-3 5-6 5h-11l-18-3-2-1 1-8 2-4 17 3h10l1-8-12-3-15-3 2-10z" fill="#F0F5FB"/>
<path transform="translate(718,136)" d="m0 0 4 1 15 14 4 3-2 4-4 2-9-7-3-2h-3l1 4 10 8-2 5-4 1-9-7-5-3-1 5 5 4v2l4 2 4 3-1 4h-2l-1 3-6-2-14-13-5-5 9-11 11-12h2v-2z" fill="#F2F7FB"/>
<path transform="translate(163,151)" d="m0 0 4 1 3 3-2 4-5 5h-2l-1 3h-2v4l6-2 7-6 1-2 4 1 2 2-1 5-9 8 1 4 4-1 5-5h2l2-4 5-1v2h2v2h2l-2 4-18 18-5-1-22-22 1-5 8-7z" fill="#EDF3FA"/>
<path transform="translate(796,2)" d="m0 0h15l13 4 8 4 10 9 6 9 3 8 1 14-3 14-6 9-7 8-11 7-9 3-6 1h-13l-9-2-12-6-11-10-6-10-3-11v-15l5-12 8-11 8-6 11-5zm3 3-10 2-12 6-9 8-6 10-3 9v13l3 10 6 10 8 7 10 6 12 3h10l10-2 10-4 10-9 6-7 4-11v-18l-4-10-6-9-9-7-11-5-8-2z" fill="#000133"/>
<path transform="translate(835,551)" d="m0 0 4 1 17 12 11 8-1 11-2 2-14 2-14 1h-12l4-9 3-3 4-2 1-9-3-2 1-10z" fill="#F3F7FC"/>
<path transform="translate(814,318)" d="m0 0h38l3 4 2 9-26 22-5 1-2-6v-5l3-3-1-5-2-5-7-2-4-9z" fill="#F3F7FB"/>
<path transform="translate(481,845)" d="m0 0h9v9l-6 9-4 12-2 15-2 2h-11l-1-1 1-13 7-16 3-4-7 1h-13l-1-1v-10l18-2z" fill="#F0F6FB"/>
<path transform="translate(55,549)" d="m0 0h9l5 4 3 7 1 12-3 5-5 4h-4v-10l3-5v-5h-5l-4 17-4 4-2 1h-7l-6-7-2-5v-12l4-5 6-1v11l-2 8 4-1 3-17 4-4z" fill="#F0F6FB"/>
<path transform="translate(530,655)" d="m0 0 6 1-2 5-9 14-10 13-8 8-11 9-13 8-8 4-11 4-7 1h-18l-5-1 2-2-6-1-5-4v-2l10 2h24l14-3 15-9 11-9 9-8 10-13 7-10z" fill="#000134"/>
<path transform="translate(699,682)" d="m0 0 4 2 1 8-3 10-8 12-4 4h-3l-1 4-4 4-5 2-9 2-5 3-12 2v2h-7l-2 1 5 2 2 4v5l-4 3-10-1-5-5-6-1-2 4v2l3 1-1 2-5-1v-7l1-3-16 1-3-3-1-2-6 2-18 7-21 6-7 3-6 9h-2v-5l3-1 2-5h2v-2l6-2 7-1 9-4 3-2h8l16-8h6l3 4 3 1 1-1 7-1-1-5h-4v3l-3 1v-14l1-2h2v-2l6-1 2 1 2 4 5 6-1 2-6-4-2-4v-3l-6 3-1 2 12 12v2l6 1 9 6 1 1h6l2-1-1-3-12-6-1-3 19-3 23-7 10-6 11-14 6-11v-8l-6-1v-2z" fill="#FAFDF8"/>
<path transform="translate(402,561)" d="m0 0 35 1h27l31-1-2 4-8 6-5 2-10 1-17-1-38-1-11-8z" fill="#F6F9FC"/>
<path transform="translate(567,57)" d="m0 0h7l10 3 7 8v6l-1 1h-9l-3-7h-6l-4 4-1 4v9h8l3-3 7 2 2 3-1 5-5 3-9 1-8-2-6-4-4-7-1-6 4-11 6-7z" fill="#F1F6FB"/>
<path transform="translate(208,119)" d="m0 0 6 1 1 1v6l-3 3-9 1-3 3 1 7 6 6 4 1 4-3 2-9 7-3 3 4v7l-4 8-7 5-9 2-9-3-7-8-3-7v-7l3-6 5-5 3-2z" fill="#ECF2FA"/>
<path transform="translate(237,672)" d="m0 0 1 3-5 5 7 1 5 3 5 1 3-1h8l7 7 8 1 2 4h2l2 4v6h7v2l4 2-1 7h-2l-1 14 3 7 5 4h3v-3l-3-1 1-3 4 1 3-7 4-2h6l2 1 2 11h-2v2h-3l-2 4h14l6-4 1-1h7l3 2 3 3h8l6-1 7 7-1 3 6-2h5v2l2 1 2 2 2 16v3h2v2h4l1 5h2v3h2l-1 3-9-7-4-8-3-16-1-3-12 1-5-8h-15l-6-4-6 1-4 3-22 1 2-5h2v-2l4-3 1-8h-6l-4 8-3 5-6 1-4-2-4-5-3-8 3-21-7-1-5-9-3-3-9-3-2-5-6-1-8 1-10-4h-10l2-5z" fill="#FAFDF8"/>
<path transform="translate(495,481)" d="m0 0h17l6 14-1 3-5-1-8-1-6 8-6 5-6 7h-8l-10-3-7-21 1-4 5 12v2h19l2-6 5-14z" fill="#FCFDFE"/>
<path transform="translate(380,837)" d="m0 0h8l3 1-1 10-8 32-1 2-8-1-6-3 2-10 6-17-9 1-6-1 2-5 4-5 10-1z" fill="#F2F6FB"/>
<path transform="translate(587,202)" d="m0 0h5l3 17v10l-2 6h-8l-9-5-5-5-5-10-3-7-2-2z" fill="#9FC1EE"/>
<path transform="translate(789,30)" d="m0 0h21l6 2 3 8-2 6-4 4 1 5 7 9v3l-5-1-4-4-6-9-4-2h-6l-1 3-1 13-4-1-1-2z" fill="#000134"/>
<path transform="translate(226,512)" d="m0 0 1 2h9l20 9 36 12 23 6v2l5 1 2-4h2l1 5-2 6-1-2-8-1-21-5-26-8-25-10-13-5v3l-5 1-1-5 2-6z" fill="#00012F"/>
<path transform="translate(354,649)" d="m0 0 5 5 12 20 1 2-16 4-10 1-5-5-5-7 1-4 6-8v-3l-2-1 8-3z" fill="#9FC1EE"/>
<path transform="translate(599,399)" d="m0 0 4 1 13 18 4 6v5l-13 18-7 9h-1z" fill="#F9FBFD"/>
<path transform="translate(59,300)" d="m0 0 6 1 2 1-1 7-1 4 9 4 12 4 3 2-1 5-2 5h-6l-18-7h-3l-3 8h-6l-4-4 8-20z" fill="#EEF4FB"/>
<path transform="translate(295,399)" d="m0 0 3 1 1 12v39l-1 2-4-1-12-17-5-7 1-4 8-12z" fill="#F9FBFD"/>
<path transform="translate(125,190)" d="m0 0 8 4-2 5-3 4v2l19 14v5l-5 5-5-1-14-11-5-2-4 6h-5l-4-3 1-4 7-9z" fill="#EDF3FA"/>
<path transform="translate(25,498)" d="m0 0h9l1 3v8l21-3h7l1 11-7 2-20 2 1 10-5 2h-4l-3-13-1-8z" fill="#EFF5FB"/>
<path transform="translate(860,361)" d="m0 0h8l6 30v3l-3 1h-7l-1-10-25 5h-3l-2-11 15-4 12-2-2-11z" fill="#F4F8FC"/>
<path transform="translate(29,407)" d="m0 0 7 1 1 3-1 9h12l13 1 3 3-1 8-1 1h-10l-17-2-1 10-1 1h-8l-1-5 2-25 1-4z" fill="#F0F5FB"/>
<path transform="translate(871,455)" d="m0 0h8l1 9v25h-10v-11h-27l-1-2 1-10h27v-10z" fill="#EFF5FB"/>
<path transform="translate(670,333)" d="m0 0 5 2h4l4 1 20 12 16 13 8 7 9 11 8 13 1 6h-2l1 2-1 3h-2l-9-17-11-13-7-7-13-10-12-8-15-9-3-2v-2l-3-1z" fill="#010120"/>
<path transform="translate(842,505)" d="m0 0h9l27 3 1 1-1 10-1 1-27-2v8l-3 9-9-2 3-24z" fill="#F3F7FB"/>
<path transform="translate(285,194)" d="m0 0h24l17 2-3 3-3 1 2 2h-42l-16 4-14 7-12 9-4-3 2-4 8-7 10-6 18-6z" fill="#000132"/>
<path transform="translate(353,53)" d="m0 0h5l2 6 3 14v5l13-2h5l2 4-1 5-21 5h-7l-1-1-3-16-3-13v-5z" fill="#EEF4FB"/>
<path transform="translate(328,551)" d="m0 0h3v2l4 2 3 5 16 12-2 20-6 4h-5l-3-5-9-31z" fill="#FAFCFD"/>
<path transform="translate(159,646)" d="m0 0 9 5 3 2v8l4 2 4-1h7l10 4 14 8 6 6v5l-4 4-8 3h-2l3 5 5 2 5-4 5-5 5 1v19l2 4 7 2v9l2 6 8 2 3 3 3 6 6-2 9-1 20 5 1 2-9-1-11-2h-9l-3 2h-6l-6-10h-6l-3-2-1-3-1-11-7-2-1-3v-10h-3v-2h3l-2-7-5 3-1 3-2 1h-8l-6-6v-5l4-3 7-1 4-4-2-4-6-2-6-1-2-5-12-5h-13l-5-3 1-9h-6l-3-5z" fill="#FBFDF7"/>
<path transform="translate(514,296)" d="m0 0 23 2 9 2 4 2 1 2v19l-1 6-4-2-13-13-8-7-11-9z" fill="#F6F9FC"/>
<path transform="translate(681,568)" d="m0 0h1l1 20-3 16-6 15-8 11-9 10-9 6-11 5-5-1 1-2 7-1 1-4h2l2-4 11-8 9-11 6-12 4-16 2-22h1l1 9 1 1z" fill="#000131"/>
<path transform="translate(563,595)" d="m0 0 1 3h12l4 2 1 8-2 10-5 3-20 4-1-3 9-24z" fill="#9FC1EE"/>
<path transform="translate(353,230)" d="m0 0 2 2 1 4 3 36 1 15 1 4 2 2-18 2 3-26 4-29z" fill="#9FC1EE"/>
<path transform="translate(416,127)" d="m0 0h17l26 1v1l-21 1-15 4-14 7-15 11-6 5 1-12 6-11 5-4z" fill="#9FC1EE"/>
<path transform="translate(163,383)" d="m0 0 2 3-1 2h-2l1 5 2 1-4 8-3 9-1 8v10l2 13 5 12 5 8-1 2-5-3-3 1-6-12-4-14v-22l4-15 8-15z" fill="#000131"/>
<path transform="translate(434,577)" d="m0 0h34l1 14h-36v-13z" fill="#F5F8FC"/>
<path transform="translate(332,594)" d="m0 0 2 3 8 22 4 9-1 2-7-3-17-3-1-6 1-16 2-2 9-2z" fill="#9FC1EE"/>
<path transform="translate(552,244)" d="m0 0 2 3 8 24 6 23v3l-23-3v-1h6v-47z" fill="#9FC1EE"/>
<path transform="translate(384,691)" d="m0 0 5 3 12 11 9 5-3 1-2 4-6 7h-6l-7-2-3-1-1-2v-21z" fill="#9FC1EE"/>
<path transform="translate(123,513)" d="m0 0h11l1 5-7-2-7 1-5 5-4 8-3 7v8l4 3-1 6-2 6v4l6 3 2 3 2 9 10-2 9 4 11 7 4 5-1 5-5 3-8 2v6l4 4-6-1-2-4v-6l3-3 2-1 9-1 1-3h-2l-4-4-6-1-1-4-4-2v-2h-8l-1 1h-6l-4-6-1-6-6-3-2-5v-7l2-3-1-4-2-2 1-11 2-7h3l1-6 4-6z" fill="#FAFDF8"/>
<path transform="translate(611,197)" d="m0 0h9l15 4 12 5 10 7 11 11 2 5-3 3-6-4-7-8-14-9-13-5-24-5 2-2 6-1z" fill="#000130"/>
<path transform="translate(451,591)" d="m0 0h12l3 2-3 2h-5l1 13 4 16 1 10-2 3h-9l-2-1z" fill="#9BBDEA"/>
<path transform="translate(482,762)" d="m0 0h8l2 1 5 16 1 7-1 13 12 5 4 5 1 4-1 1-17 1-9 4-4 6-7 2-6-1-5-1-5 7h-7l-11-5 3-1 7 1 4 1 4-1v-2l3-1 1-2h12l5-1 5-4 5-3 2-1h13v-3l-2-1-1-5-9-4-1-2v-16l-4-11-2-4-7-2z" fill="#000131"/>
<path transform="translate(525,308)" d="m0 0 4 2 12 11 29 29 4 5 2 5v3l-3-1-1-3-3-2-3-3-4-1-14-15v-2l-4-2-8-8-8-7-6-6 1-4z" fill="#000131"/>
<path transform="translate(103,651)" d="m0 0 3 1 3 6v4l-27 14-6 1-4-9 9-6z" fill="#EFF5FA"/>
<path transform="translate(226,329)" d="m0 0 2 2h5l1 1h5v2l-6 3h-2l9 22 11 24 2 3-1 6-6-3-14-29-6-15v-9l-2-1z" fill="#00012D"/>
<path transform="translate(874,417)" d="m0 0 4 1v11l-3 1-23 2h-11v-11l23-3z" fill="#EEF4FB"/>
<path transform="translate(25,465)" d="m0 0h35l1 1v10l-6 1h-31v-11z" fill="#E8F0FA"/>
<path transform="translate(524,47)" d="m0 0 10 2-1 9-4 26h-11l-1-1v-9l5-26z" fill="#EDF3FB"/>
<path transform="translate(477,838)" d="m0 0h10l-3 2-9 1-2 1 2 1 11 1v1l-14 2-17 1 2-4-2-2-5-1h-10l-4 2 5 9 3 5 2 7v12l-3 8h-2l-2 4-5 5-4-1 4-3 5-4 3-8v-17l-4-8-5-4-15-4 3-2 2-1-1-2z" fill="#000131"/>
<path transform="translate(798,222)" d="m0 0 4 1 4 6-1 4-14 9-13 8-4-1-4-6v-3l14-8 10-7z" fill="#EEF4FB"/>
<path transform="translate(624,757)" d="m0 0 1 2-6 7-3 5h-2v2l-5 1-1 3-4 4-5 1-2 6-4 1-6 1-5 2-26 4-27 2-13 2-8 3-5-1-7-3v-4l9 1 23-1 24-3 21-2 13-3 11-6 16-13 8-9z" fill="#FBFDF7"/>
<path transform="translate(324,197)" d="m0 0 12 1 20 5v-2l4 2 1 2 21 8v2l5 2v2l-7 1-18-7h-7l-2-4-30-6-4-3z" fill="#01011F"/>
<path transform="translate(300,64)" d="m0 0h23l2 1v2h2l6 10v14l-2 5-6 5h-2v4l4 1h9l9-3h6l-4 2-33 11-24 10h-2v-2l12-5 15-7 2 1v-2l-3-1 1-4h5v-2l-4-2 10-5 4-5 1-8-2-9-6-8-2-1h-15l-8 4-4 6-1 9 4 10 4 4 5 3-4 1-5-3-5-6-3-7v-6l3-9z" fill="#000132"/>
<path transform="translate(541,828)" d="m0 0 3 1-5 1-1 4-2 4-1 3-3-3-2-1h-10l-10 2-5 4-3 5-1 7 11-1 2-2 1-5 2-2h5l2 2-1 7-7 10-5 7-1-2 1-2 1-9h-7l-7-3 3-14 2-2h-7l-5-1v-1l33-5z" fill="#000133"/>
<path transform="translate(782,566)" d="m0 0 2 1-3 9h-3l1 6-5 2v8h-2v-2h-3l-5 6h-3l1 3h2l-1 5 4 2v2l-4 2-3 6-8-1-1 2h-1l3 4-2 10-4 1 2-6 2-5-10-3-3-6v-4l3-1 11 3 6 2h2l2-6h-11l-1-5 13-9h2l2-4 10-13z" fill="#FBFDF7"/>
<path transform="translate(163,459)" d="m0 0 5 4 5 5 9 10 12 11 15 10-1 6 5 1-1 2-4-1-18-12-11-10-5-5-8-9-5-7v-3h2z" fill="#00012C"/>
<path transform="translate(172,591)" d="m0 0h2l-1 4 10 1 2 5 7 1 6 1 2 1 3 9 8 3 3 2 1 8-1 3 7 2 1 2v9l-1 3h-2l-3 9-1 7 2 10 1 3h4l2-4 3-1v-2h2l2-4 1-1h8l1 2v6l-3 2v-7h-5l-6 9-5 3-5-2-4-8-1-5v-8l7-14v-6l-7-3-2-11-6-4-4-2-3-7-3-2h-9l-7-6-9-1-1-4z" fill="#FAFDF7"/>
<path transform="translate(565,558)" d="m0 0h2l-1 7-7 25-1 3-5 1-3-4-2-10v-9l5-4 6-4 3-4z" fill="#F7FAFD"/>
<path transform="translate(557,535)" d="m0 0 4 1 4 7 3 1v2l-24 4-17 2h-8l6-7 4-3 8 1 11-4z" fill="#9FC1EE"/>
<path transform="translate(464,720)" d="m0 0h2v2h-3l-1 11-1 3-10 3h-6l-5-10-2-6-2-2h21z" fill="#9FC1EE"/>
<path transform="translate(225,616)" d="m0 0 4 1 6 9 8 9 12 8 11 4v6h-6l-14-7-9-7-10-11-4-6 1-4z" fill="#00012C"/>
<path transform="translate(681,655)" d="m0 0 4 1-6 5 5 5 6 5-1 5-5 4-5-1-1-8-4 1v2l-14 10-6 4-11 6-5 5-3 7-2 10h-1v-7l1-9 3-5 6-5 7-3 4-4h5l1-3 8-4 6-5 1-5 3 1-1-3 3-7z" fill="#FAFDF7"/>
<path transform="translate(388,160)" d="m0 0 2 3-3 5-13 17-11 18-1 3-2-1-3-3 1-5 10-16 10-13 4-2 5-5z" fill="#000131"/>
<path transform="translate(895,516)" d="m0 0h1v11l-5 29-8 32-12 36-7 16-1-3 3-10 2-9 5-10 6-17 3-14 2-3 4-23 2-8 2-16 2-4z" fill="#000132"/>
<path transform="translate(298,467)" d="m0 0 3 3v2h2l8 11 3 25v5l-2-3v-2l-4-2-8-16-1-4v-15z" fill="#9FC1EE"/>
<path transform="translate(672,101)" d="m0 0 5 2 2 4 5 5v3l-7 1-4 6-6 3-1 7-5 3-2-3v-5l7-10v-3l-2 1 2-5z" fill="#FDFDF7"/>
<path transform="translate(482,275)" d="m0 0 4 2 5 1 10 8 2 5-3 3h-24l-13-1 1-2 10-3h17l-5-5-4-3z" fill="#01011D"/>
<path transform="translate(656,484)" d="m0 0 5 1 6 12 4 11 1 6h4v3h-2v11l1 3v6l-3 1-3-12v-8-1l-4-5-10-24z" fill="#00012F"/>
<path transform="translate(477,51)" d="m0 0h5l5 3 9 1v3l2 1v2h2l1 6-4 8-1-4v-10l-11-2h-5l-1 6 8 2-2 4-1 1h-7l-5-5-1-8 3-6z" fill="#000132"/>
<path transform="translate(766,520)" d="m0 0h7l2 3 1 6h10l2 5 1 7v11l-1 8h-3l-1-28-10 1-2-4-1-7-7 7-4 1-4-4-3 12-9 14h-2l2-7 3-2 2-5 6-14 5-1 1 3 3 1v-5h2z" fill="#FAFDF8"/>
<path transform="translate(712,485)" d="m0 0 3 2-1 3h-3l-2 3v3l-9 7-13 8-9 5h-2v-2l-5 1v-5l5-1 16-9 10-7z" fill="#000131"/>
<path transform="translate(721,364)" d="m0 0 6 4 9 11 8 13 1 6h-2l1 2-1 3h-2l-9-17-11-13-4-5 3-1z" fill="#010121"/>
<path transform="translate(668,617)" d="m0 0 3 2 2-1-1 4-10 13-9 8-16 8-5-1 1-2 7-1 1-4h2l2-4 11-8 9-11z" fill="#000130"/>
<path transform="translate(415,844)" d="m0 0 3 2-6 3-4 6-1 3v7l4 7 4 3h15l-2 5-4 4-4-1-5-4-10-1 2 6 5 5 7 2v1h-9v-2h-2l-6-6 1-7 2-2-2-10 2-11 2-2 2-5z" fill="#000132"/>
<path transform="translate(159,535)" d="m0 0 2 2v9l6-1 3 7-1 7-6 9-1 2 4 2 1 6-4-1-3-1v6l3 1-1 2h-2l1 2h3l1-3h2l2-5 4-1-1 5-4 5-4 2h-5l-2-4v-14l5-9 3-5 1-6-5-1-2-10z" fill="#FBFDF7"/>
<path transform="translate(759,61)" d="m0 0 5 3 3 6 5 6 14 9 12 3h10l10-2 10-4h3l-2 4-13 5-6 1h-13l-9-2-12-6-11-10-6-10z" fill="#000133"/>
<path transform="translate(595,473)" d="m0 0 2 1 1 5-4 17v6l-1 1-9 1 1-16 2-6 7-8z" fill="#9FC1EE"/>
<path transform="translate(341,539)" d="m0 0h8l15 6 8 2h3l3 2v3l-14-1-32-5v-1h7l1-5z" fill="#9FC1EE"/>
<path transform="translate(416,287)" d="m0 0h72v1l-14 1-10 3-1 1h-29l-3-4-15-1z" fill="#000130"/>
<path transform="translate(339,508)" d="m0 0 8 4 17 16 4 4-1 7-4-2-13-12-13-13z" fill="#000127"/>
<path transform="translate(301,757)" d="m0 0 3 3 1 9 4 10 5 5h9l3 12 4 2h10l6 4 2 4 4 1h-6l-7-5-13-2-4-3-4-1v-2h3v-6h-9l-3-2v-2l-2-1-3-8-2-10v-2l-6 1-5 4 2-4z" fill="#FBFDF7"/>
<path transform="translate(415,51)" d="m0 0h6l4 4 1 7-2 7-4 2-5-1-3-3-1-2v-10z" fill="#000133"/>
<path transform="translate(440,255)" d="m0 0 4 2v4l-18 12-10 8-5-2 1-5 19-13z" fill="#000131"/>
<path transform="translate(89,262)" d="m0 0 8 1 6 4 1 2v6l-4 3h-7l-8-5-1-4 3-5z" fill="#000132"/>
<path transform="translate(624,90)" d="m0 0 8 1 2 3-1 8-4 6-1 1h-7l-3-3v-8l4-7z" fill="#000133"/>
<path transform="translate(310,73)" d="m0 0 5 2 4 5 1 9-4 4h-6l-4-4-2-5 1-7z" fill="#000457"/>
<path transform="translate(456,254)" d="m0 0 5 2 17 12 10 8-1 3-4-3-2 3-17-12-11-8 1-3h2z" fill="#00012C"/>
<path transform="translate(405,877)" d="m0 0 10 1 6 5v2h-4l2 1v2l7-1 5-2 1-2 4-1v3l2 2-5 4-13 1-9-3-6-6-1-5z" fill="#EBF1FA"/>
<path transform="translate(108,177)" d="m0 0 2 1-1 4-5 2-2 6-5 3-3 6-5 6h-2l-3 9h-2l-2 4-4 5-1 2h-2l-1 4-8 13-8 14-6 11-2 5h-2l2-6 15-28 12-18 12-17 13-17z" fill="#000132"/>
<path transform="translate(474,577)" d="m0 0h14l1 2v13l-15-1-1-1v-12z" fill="#FBFDFE"/>
<path transform="translate(747,634)" d="m0 0 2 4-1 2-3 1-3 7-4 5-4 1-2 5-5 2-2 4 5 1v3l-5-1-1-2-4 1-9 4v3l8 1-1 3-7-2-6-4v-3l15-6 11-8 6-7 6-9 1-3z" fill="#FBFDF7"/>
<path transform="translate(414,577)" d="m0 0h14l1 1v12l-1 1h-14l-1-5v-8z" fill="#F0F6FB"/>
<path transform="translate(578,82)" d="m0 0 7 2 2 3-1 5-5 3-9 1-6-1-2-4v-6l1 3 3-2 7-1z" fill="#ECF3FA"/>
<path transform="translate(795,34)" d="m0 0h14l4 2 1 5-1 3-4 2h-14l-1-8z" fill="#EAF2FB"/>
<path transform="translate(441,640)" d="m0 0h19l1 4-3 1 2 3-1 5h-16l-2-1v-4h11v-3h-11z" fill="#CCE1F7"/>
<path transform="translate(38,354)" d="m0 0 1 3-2 6 9 1 16 3 3 2-1 8-1 1h-10l-16-3-1-2h12l9 2-1-4h-9l-2-5-9-1-1-5z" fill="#000131"/>
<path transform="translate(517,845)" d="m0 0h5l2 2-1 7-7 10-5 7-1-2 1-2 1-9h-7l-7-3 2-7h1v7l11-1 2-2 1-5z" fill="#000137"/>
<path transform="translate(164,152)" d="m0 0 4 1 2 4-7 7h-2l-1 3h-2l2 10-3-1v2h-2l-7-7 3-3 1-4z" fill="#F3F7FB"/>
<path transform="translate(444,479)" d="m0 0h11l5 1v6l-19 1-1 7-4 12-2-4-3 2-12-1-5-1 1-2 21 1 2-10 2-9z" fill="#F3FDFE"/>
<path transform="translate(801,320)" d="m0 0 1 2h2l1 4 2 1 2 9 3 8 4 13 3 5 1 8 4 17 3 13v14h-1l-6-31-6-23-10-30-3-7z" fill="#000132"/>
<path transform="translate(856,466)" d="m0 0 11 1-1 3h8v4l-3 1-4-1-4 2-17-1-1-4 3-4z" fill="#FDFDFE"/>
<path transform="translate(176,113)" d="m0 0 2 2-2 3-6 3-5 5-5 3h-2l-1 4-6 4-6 5-4 4-1 3-5 3-3 5-3 1-4 5-1 2h-2l-1 2-10 10h-2l2-4 11-11 7-8 4-2v-2h2l1-3 8-7 7-7 11-9z" fill="#000134"/>
<path transform="translate(83,597)" d="m0 0 4 4 3 10-4 5v2h5l3 3 2 4v6l-14 7h-5l4-3 13-5-2-9-8 2-7 3h-3l2-5 7-9 2-3-1-6z" fill="#000132"/>
<path transform="translate(30,623)" d="m0 0 4 1 3 10 5 11 7 14 7 12 3 9h2l5 12 5 8-1 2-7-10-14-26-13-27-6-15z" fill="#000132"/>
<path transform="translate(807,275)" d="m0 0h3l-2 6-6 10v6l3 5 6-2 17-9 4-1v2l-15 8-9 5h-6l-1-4-3-1-1-5 3-7-1-4-4-1v-2z" fill="#000132"/>
<path transform="translate(223,133)" d="m0 0 4 4v7l-4 8-7 5-3-1h2l2-6h-5l1-4 2-1 2-9z" fill="#EAF2F9"/>
<path transform="translate(624,757)" d="m0 0 1 2-6 7-3 5h-2v2l-5 1-1 3-4 4-5 1-2 6-4 1-6 1-5 2-12 1-4-2 16-3 10-4 10-7 11-9 8-9z" fill="#FAFDF7"/>
<path transform="translate(372,297)" d="m0 0h11l-6 7-3 3h-2v2l-5 4h-3l-2-8v-5l3-2z" fill="#EBF3FB"/>
<path transform="translate(566,648)" d="m0 0 15 1 3 3h18l8 3v1h-31l-7-1-3-2-10-2 2-2h5z" fill="#01011B"/>
<path transform="translate(212,147)" d="m0 0 2 2 4 1-3 6h-2v2l-6 1-9-3-5-5 1-3h8l4 1z" fill="#EFF5FB"/>
<path transform="translate(237,362)" d="m0 0 1 2v4l5-2 8 17 2 3-1 6-6-3-11-23z" fill="#000131"/>
<path transform="translate(758,189)" d="m0 0 1 3-5 5-8 9-1 3 5 5 5-1 16-8h2l-1 3-11 7-4 4-10-3-4-5v-5l-2-1 2-4 11-9z" fill="#000130"/>
<path transform="translate(677,115)" d="m0 0h3l3 5-1 6-4 6-2 2-7-1-2-3 7-11z" fill="#000132"/>
<path transform="translate(3,508)" d="m0 0 2 4 2 15 2 9 3 18 4 14 1 9h2l2 12v5l-2-2-6-21-6-28-4-28z" fill="#000132"/>
<path transform="translate(611,197)" d="m0 0h9l12 3 6 6-1 1h-7l-27-6 2-2 6-1z" fill="#00012C"/>
<path transform="translate(458,595)" d="m0 0h17v5l-9 1-1 6-3-2-1 3 2 8 1 2v15h-1l-2-13-3-12z" fill="#F3FDFE"/>
<path transform="translate(742,396)" d="m0 0h3l3 4 4 16v17l-4-3 1-5v-1l-2-1v-4l-2 1-2-10-1-7 1-4z" fill="#000130"/>
<path transform="translate(775,10)" d="m0 0 2 1-4 5-6 8-6 12-1 4v13l2 10-4-2-2-8v-15l5-12 8-11z" fill="#00012E"/>
<path transform="translate(173,160)" d="m0 0h6v2h2l4 4 3 1 3 5v2h-2v-2h-2v-2l-5 2-10 10-4-1-1-4 10-9-1-5z" fill="#000132"/>
<path transform="translate(521,444)" d="m0 0h13l1 3-2 1-1 12-2-1-2-13h-1l-1 14-3-1-1-3v-8l-3-1 2 12-4-2-3-9v-3z" fill="#F6FDFE"/>
<path transform="translate(324,557)" d="m0 0 3 2 4 4 4 14-1 9h-3v-2h-2l-5-18z" fill="#010120"/>
<path transform="translate(830,477)" d="m0 0h1l-1 33-3 18-2 13-3 9-1 9-4 2 4-18 5-28 2-19 1-16z" fill="#000133"/>
<path transform="translate(739,552)" d="m0 0 2 1-1 4-3 8v15l4 16-1 4-5-1-5-5-2-4 5 2 4 5-1-9-1-1-2-10-2-2-1-6 4-3 3-12z" fill="#FAFDF7"/>
<path transform="translate(795,745)" d="m0 0h3l-2 4-12 14-7 7-2 3h-2l-2 4-15 14-9 8h-2l2-5 4-2 10-10 2-4 5-1 1-3 5-4 3-3 1-3 8-7 3-5h3l2-6z" fill="#000134"/>
<path transform="translate(836,549)" d="m0 0 5 1 3 4 7 4 11 8 8 6 1 3-4 10-2 2-25 2h-7l3-2 24-2 5-2 1-11-17-12-12-9z" fill="#000134"/>
<path transform="translate(592,381)" d="m0 0 8 4 8 11 3 4v3l-2 1-1 2h-2l-10-14-3-3z" fill="#000128"/>
<path transform="translate(861,640)" d="m0 0h2l-1 4-7 16-10 19-15 25-5 5 2-5 2-4h2l2-6 7-14h2l2-6 3-4 5-10 3-8 5-11z" fill="#000133"/>
<path transform="translate(345,445)" d="m0 0h18l2 5v8l-3-1-2-9-4-1 3 8-1 4-2-3-1 3-3-1v-7l1 2h2v-5l-4 1-2-1-1 11h-2l-1-9-1-4z" fill="#F3FDFE"/>
<path transform="translate(409,772)" d="m0 0 8 1 5 3v1h-9l-1-1h-5l-3 12 4 7 1 1v10l-2 1-3-7-3-5-1-9 3-9z" fill="#000132"/>
<path transform="translate(255,65)" d="m0 0 3 1-3 2-8 5-6 2-2 2-11 6h-2v2l-22 11-2-1 22-14 22-12z" fill="#000133"/>
<path transform="translate(233,218)" d="m0 0 2 1 2 2-1 4-8 13-4 4-4-2 3-9 8-11z" fill="#000126"/>
<path transform="translate(450,596)" d="m0 0h1v36l-1 3-5-1-1-2 2-11v-15l3-1z" fill="#000352"/>
<path transform="translate(121,201)" d="m0 0 1 2 2 1-1 5-5 2-1 2h-2v3h-2l1 5h-5l-4-3 1-4 10-10 4-2z" fill="#EEF4FA"/>
<path transform="translate(388,160)" d="m0 0 2 3-3 5-12 16-4-2v-5l8-10 4-2z" fill="#000127"/>
<path transform="translate(445,610)" d="m0 0h1l1 11-2 12 5 2 1-3v4h-12v-10l4-13z" fill="#000130"/>
<path transform="translate(468,600)" d="m0 0 11 1 2 3-1 4-4 4-7-1-4-4 1-6z" fill="#9DBFEC"/>
<path transform="translate(568,444)" d="m0 0h12l1 4v6l-4 4-4 1 1-4 3-7-7-1v11l-3 1-1-1v-11z" fill="#F4FDFE"/>
<path transform="translate(579,59)" d="m0 0 5 1 7 8v6l-1 1h-9l-3-7-6-1v-1l7-2 2 1v2h3v-3l-5-1z" fill="#E3EEF9"/>
<path transform="translate(556,444)" d="m0 0h8l1 3-4 3 1 7v2l-4-1v-10l-3-1v10l-3-1-2 3-3-1 1-8 5-5z" fill="#F5FDFE"/>
<path transform="translate(172,161)" d="m0 0 4 1 2 2-1 5-9 8h-5l-1-5 6-7z" fill="#EBF2FB"/>
<path transform="translate(567,57)" d="m0 0h7l5 1 1 5 4 1 1 4-4-1v-2l-9 1v2l-3 1-1-3 2-2-1-2-7 1-4 3 2-4 5-4z" fill="#EFF4FA"/>
<path transform="translate(381,442)" d="m0 0h2l1 2 5 3 3 5 2 4v3l-3 1-3-3-3-7v-3l-4 1 2 7v4h-4l-2-14z" fill="#F4FCFE"/>
<path transform="translate(496,421)" d="m0 0h10v10l1 4-3 1-2-4-1-10-2 1v10l-2 3-4-1-2-9 1-4 3 1z" fill="#F5FDFE"/>
<path transform="translate(711,159)" d="m0 0 4 1 8 7 5 2-2 6-4 6-1-2 1-4-7-5v-2l-4-2-2-3z" fill="#000133"/>
<path transform="translate(746,413)" d="m0 0 2 2v8l3 1-2 4 2 4-1 10-1 4h-2l-2 3-1-3-2 1 2-11 2-18z" fill="#01011D"/>
<path transform="translate(379,794)" d="m0 0h16l5 2v1l-7 1h-12l-18 1-4 5-3 2-3-1 3-1 1-6 5-2z" fill="#FAFDF8"/>
<path transform="translate(427,600)" d="m0 0 9 2 1 4-5 5h-6l-6-4 1-5z" fill="#000130"/>
<path transform="translate(425,441)" d="m0 0 2 1 1 4v10l-1 2h-5l-1-5h2v2h2l-1-8h-4v2l-2 1-1 7-4 1-1-2v-8h4l1-4 6 1z" fill="#F5FDFE"/>
<path transform="translate(800,609)" d="m0 0h1l-1 8-6 12-4 7-2 8h-3l-2 5-2 6-3 2-3 7-6 5 2-5 13-22 11-21z" fill="#000131"/>
<path transform="translate(853,374)" d="m0 0 4 1-3 3-7 3v1l-9 3 1 2 4 2-8 1-2-11 15-4z" fill="#ECF3FA"/>
<path transform="translate(368,831)" d="m0 0 11 1 16 3-3 2 3 4-4 3v-6h-11l-4 3h-5l3-1v-2l-6-2v-2h2v-2z" fill="#000132"/>
<path transform="translate(59,560)" d="m0 0h5l1 1v5l-3 5-1 10h-4l-5 2-3-1 4-2 3-9 2-10z" fill="#000132"/>
<path transform="translate(537,421)" d="m0 0h15l-1 7-2 7-5-1 1-2h3v-9h-5v9l-3-1-1-7-2 4-1 7-3-2 1-9z" fill="#F4FDFE"/>
<path transform="translate(796,2)" d="m0 0h15v2l6 1v1h-18l-10 2-12 6-5 2 1-2h2l2-5 11-5z" fill="#00012A"/>
<path transform="translate(422,854)" d="m0 0 6 1 2 4-1 7-4 3-5-1-1-3v-8z" fill="#000138"/>
<path transform="translate(313,42)" d="m0 0h3v2l-11 3-9 4-8 3-14 7-7 1-7 3-3-1 20-9 24-9z" fill="#000132"/>
<path transform="translate(722,599)" d="m0 0 8 2 7 5-1 3-5 4-4-1-3-6v-2l-5 4 1-6z" fill="#FAFDF8"/>
<path transform="translate(466,421)" d="m0 0h13v12l-3 3-1-1-1-12-3-1v9l1 5-3-1v-3h-3l-1-9z" fill="#F4FDFE"/>
<path transform="translate(48,614)" d="m0 0 2 3v3l7-1 10-4h2l-2 5-9 12-1 5h-1v-13l-5-2-3-2z" fill="#000131"/>
<path transform="translate(812,320)" d="m0 0h2l3 6v2l7 1 4 8-1 4-2 2 1 11 6-2-2 4-5-1-3-4v-7l1-8-4-5-5-3-2-2z" fill="#000132"/>
<path transform="translate(189,128)" d="m0 0 2 1-2 5v7l3 7 6 7 9 3h7l-3 2h-10l-8-4-2-4-4-2-2-9 2-10z" fill="#000132"/>
<path transform="translate(235,98)" d="m0 0 3 1-4 1 3 7 9 17 5 9-5-2-3-5-4-6v-2l-3-1-4-11v-6z" fill="#000132"/>
<path transform="translate(54,547)" d="m0 0h8l3 1-1 2h-9l-4 2-3 12-1 7-5 1v-6l1-2 1-11 4 1 1-5z" fill="#000135"/>
<path transform="translate(226,512)" d="m0 0 1 2h9l7 4-4 1 1 3-11-2v3l-5 1-1-5 2-6z" fill="#01011C"/>
<path transform="translate(288,747)" d="m0 0 5 1 1 5-3 5-5 3-5 2-1 2h2v2l4 1v2h2v3l-5-1-6-8 2-4 4-3h7l-1-7z" fill="#FAFDF7"/>
<path transform="translate(3,401)" d="m0 0h2l-1 15-3 30h-1v-41h2z" fill="#DCE9F8"/>
<path transform="translate(437,242)" d="m0 0 2 2 1 5h3l11 3 3 5h-3l-2 2-4-1-5 2v-3l-2-1v-2h2v-2l-5-2-3-3z" fill="#01011E"/>
<path transform="translate(670,111)" d="m0 0h1l1 11-5 3-1 7-5 3-2-3v-5l7-10 4-2z" fill="#FCFDF6"/>
<path transform="translate(252,112)" d="m0 0 8 3 12 6v1h-8l-2 8-4 3-4-1 4-3h2l-4-9-4-6z" fill="#000131"/>
<path transform="translate(729,144)" d="m0 0 7 6 5 4-2 4-4 2-9-7-3-3 3-1h3z" fill="#E8F0FA"/>
<path transform="translate(616,801)" d="m0 0h2v2l-5 3-10 4-8 4-13 4-2 2-12 3-7 1 2-2 23-8 24-10z" fill="#000133"/>
<path transform="translate(103,651)" d="m0 0 3 1 3 6v4l-2-1 1-2h-2l-1 2-1-2-10 1-1 3-7-1 1-3z" fill="#E6EFFA"/>
<path transform="translate(421,421)" d="m0 0h11v11l1 3-5 1-1-4 1-9-4 1-1 12-3-1-1-13z" fill="#F3FDFE"/>
<path transform="translate(624,92)" d="m0 0h5l1 4-1 9-7 2-2-2 1-10z" fill="#000457"/>
<path transform="translate(667,509)" d="m0 0 2 2 2-2 1 5h4v3h-2v11l1 3v6l-3 1-3-12v-8-1l-3-4z" fill="#01011E"/>
<path transform="translate(143,170)" d="m0 0 4 5 21 21-2 1-7-5-3-1v-2l-4-1-2-5-4-2-3-5z" fill="#000131"/>
<path transform="translate(203,130)" d="m0 0 7 1-4 2-4 1 2 4 3 2 2 6 4-2 2-7 3-4 4 1-5 2-1 9-6 4-5-3-5-5-1-7z" fill="#000134"/>
<path transform="translate(678,105)" d="m0 0 5 2 8 6 4 7v2l-5-2h-3l-3 1-1 2-3-7 4-3-3-3v-2l-3-1z" fill="#E6EFFA"/>
<path transform="translate(310,73)" d="m0 0 5 2 4 5 1 9-4 4h-6l-4-4-2-5 1-7zm1 2-4 2-2 3 1 3 3 3 3 5 5-1 2-1-1-5-4-8z" fill="#000134"/>
<path transform="translate(496,795)" d="m0 0 9 1h15l-1 3-11 4-5-1-7-3z" fill="#F2F8F5"/>
<path transform="translate(496,91)" d="m0 0 11 1 6 1v2l14 1 7 2 9 2 15 4 2 2-7-1-30-7-27-4-3-2z" fill="#000134"/>
<path transform="translate(734,382)" d="m0 0 5 1 6 11-1 4v2l-1 3h-2l-7-13v-2h3l-3-4z" fill="#010125"/>
<path transform="translate(572,67)" d="m0 0h6l2 2 1 6h8v1l-8 1-6-1 1-6-5-1-2 7v7l5 1v-2l4-1v2h-2l-1 3h-6l-3-3v-7l3-7z" fill="#000133"/>
<path transform="translate(461,48)" d="m0 0h2l-3 11 1 9 3 6 3 3 6 2v1h-8l-3-2v-2h-2l-4-7v-9l2-7z" fill="#000132"/>
<path transform="translate(339,508)" d="m0 0 8 4 5 6 2 8h-3l-14-14z" fill="#010120"/>
<path transform="translate(197,493)" d="m0 0 4 1 8 5-1 6 5 1-1 2-4-1-14-9v-3z" fill="#01011E"/>
<path transform="translate(651,635)" d="m0 0 5 1-2 2-1 5-16 8-5-1 1-2 7-1 1-4h2l2-4z" fill="#010121"/>
<path transform="translate(620,738)" d="m0 0 1 2 6 1 9 6 7 2v1l-9 1-5-5-6-1-2 4v2l3 1-1 2-5-1v-7z" fill="#F7FCF9"/>
<path transform="translate(564,281)" d="m0 0 7 1 2 4 2 11-9 1 2-1z" fill="#000133"/>
<path transform="translate(536,841)" d="m0 0 2 1v15l-1 3 2 1-5 1 4 1h3l-4 3-11 4 1-4 7-10 2-5z" fill="#000132"/>
<path transform="translate(435,882)" d="m0 0 1 3 2 2-5 4-13 1-5-1v-4l4-1v2l7-1 5-2 1-2z" fill="#EDF3FB"/>
<path transform="translate(490,847)" d="m0 0h1v11l-5 8-3 10v4h-2l-2 9h-1l1-14 5-14 5-7z" fill="#000133"/>
<path transform="translate(747,698)" d="m0 0 2 1-3 5-2 1-3 6-4 2-7 8-4 6-6 4-7 6-1-2 8-7 7-7 7-8z" fill="#000132"/>
<path transform="translate(785,529)" d="m0 0 2 4 1 1 1 7v11l-1 8h-3l-1-28h-2v-2z" fill="#FCFDF6"/>
<path transform="translate(315,307)" d="m0 0h4l-1 11-7-1-5-5v-3z" fill="#DAE7F8"/>
<path transform="translate(713,168)" d="m0 0h2v2l4 2 4 3-1 4h-2l-1 3-6-2-3-3 2-6z" fill="#EAF2FA"/>
<path transform="translate(735,459)" d="m0 0 3 1 1 1v5l-4 5-4 1-4 5-2-2-3 2 2-4 8-9z" fill="#00012E"/>
<path transform="translate(823,258)" d="m0 0 3 1 2 3-1 8-1 7 4-1 1 2-12 7-3-1 6-10 3-7-1-6z" fill="#000132"/>
<path transform="translate(382,214)" d="m0 0 5 1 13 6 1 4-4-1v3l-6-2-9-4 1-2h4v-2l-5-2z" fill="#00012D"/>
<path transform="translate(528,775)" d="m0 0h2l-2 4-6 4-10 6-10 4h-4l1-3 10-4 9-3v-2l5-4z" fill="#FAFDF8"/>
<path transform="translate(406,705)" d="m0 0 4 1 1 3 10 2v2l5 1 3 2 7 2 1 2h-7l-13-5-7-4v-2l-5-2z" fill="#01011F"/>
<path transform="translate(561,59)" d="m0 0 2 1-5 6-4 11 2 8 4 6 10 4v1l-14-2-2-4-2-9v-9l5-10z" fill="#000132"/>
<path transform="translate(401,47)" d="m0 0 1 3-2 6v10l4 8 4 3 8 2v1h-12l-3-3-5-13 1-10z" fill="#000132"/>
<path transform="translate(344,421)" d="m0 0h8l4 2v9l-1 3h-2l-1-11-5-1 1 10 3 1v1h-6l-1-1z" fill="#F4FDFE"/>
<path transform="translate(409,421)" d="m0 0h5l2 3v8l-3-1-1 4-5 1-2-2v-8h2l1 6 2-1v-5h-2z" fill="#EEF8FD"/>
<path transform="translate(720,150)" d="m0 0 5 1 8 7 3 3-3 1 1 2h-2l-1 4-2-1 1-4-11-9z" fill="#000134"/>
<path transform="translate(847,469)" d="m0 0 2 1v4l6-1h8l-1-4 12 1v4l-3 1-4-1-4 2-17-1-1-4z" fill="#FDFEF7"/>
<path transform="translate(39,378)" d="m0 0 9 1 3 3v2l8-2 5 4-8 1-6-1h-5l-3-2-5-2v-3z" fill="#FDFEF6"/>
<path transform="translate(406,310)" d="m0 0h5l1 2-5 8-1 4-7 5-2-1 7-9v-3l-5 3h-2l2-4 6-4z" fill="#F3FDFE"/>
<path transform="translate(521,48)" d="m0 0 1 4-4 22v9l7 1v2l-9-1-3-2v-3h2v-7l4-20z" fill="#000133"/>
<path transform="translate(856,364)" d="m0 0 3 1 1 8-16 4-11 2 2 6-1 4-2-2v-9l5-3 11-2 6-1 2-4z" fill="#000131"/>
<path transform="translate(710,737)" d="m0 0h2l-2 6-6 3-10 8-4 4-4 3h-2v2l-4 1v2l-6 2 5-5 22-18z" fill="#000134"/>
<path transform="translate(850,518)" d="m0 0 22 1 5 1-2 2h-9l-8 1-6-1v5l-3 1z" fill="#000131"/>
<path transform="translate(80,261)" d="m0 0h3l2 5-1 4-1 6 6 3-2 4-6-2-1-5-3-4z" fill="#FAFCF9"/>
<path transform="translate(740,607)" d="m0 0 5 1-1 2h-2v5h5l1 2 2 1 3 3-2 10-4 1 2-6 2-5-10-3-3-6v-4z" fill="#FAFDF8"/>
<path transform="translate(0,481)" d="m0 0h1l3 34v7h-3-1z" fill="#D6E4F7"/>
<path transform="translate(334,303)" d="m0 0h11v7l-1 4-5-1-4-5z" fill="#FDFDFE"/>
<path transform="translate(807,275)" d="m0 0h3l-2 6-3 5-4 6-2-8-4-1v-2z" fill="#00012D"/>
<path transform="translate(265,85)" d="m0 0 4 2 2 5 3 5 4 5 5 8v6l-2 2-2-6-14-25z" fill="#000133"/>
<path transform="translate(526,51)" d="m0 0 6 3v6l-5 4-3 6-2-2 1-7z" fill="#FCFDF6"/>
<path transform="translate(669,102)" d="m0 0h2l-2 5-11 16-6 8-1-4 2-1v-2h2l1-4 5-9z" fill="#000133"/>
<path transform="translate(502,445)" d="m0 0h5l1 3 4 1 1 4-2 6h-5l-1-2-1-9-2-1z" fill="#F0F9FD"/>
<path transform="translate(502,288)" d="m0 0 10 1 2 2-3 5-6 2-6-3-2-3 5-1z" fill="#000131"/>
<path transform="translate(299,882)" d="m0 0h8v2l3-1 10 4 11 3 10 2 2 3-8-1-25-7-11-4z" fill="#000133"/>
<path transform="translate(693,675)" d="m0 0 8 1 9 5 8-1-1 5h-9l-1-3-9-3h-4l-1 3h-2v-5z" fill="#F9FDF9"/>
<path transform="translate(322,540)" d="m0 0h2l1 5-2 6-1-2-8-1-7-2-2-2h8v-2l7 2z" fill="#01011B"/>
<path transform="translate(840,505)" d="m0 0h2l-2 20-2 8 10 1v2l-9 1-5-3 2-6h2v-9z" fill="#000132"/>
<path transform="translate(118,214)" d="m0 0 5 2 16 13-2 1-7-3-7-6-6-1-2 1 1-4z" fill="#000132"/>
<path transform="translate(23,499)" d="m0 0 2 2 3 25 1 7 3 1h-4v-2h-2l-2-10-2-12v-8z" fill="#000131"/>
<path transform="translate(562,894)" d="m0 0 2 1-1 1 3 1-1 3h-17l-7-1 1-2z" fill="#DAE8F6"/>
<path transform="translate(818,616)" d="m0 0 5 1 9 4-4 2-15 3-6 6v-3l3-5 9-2z" fill="#000134"/>
<path transform="translate(40,553)" d="m0 0h4v11l-2 2-1-5v-3l-4 1v8l-3 4v-12l4-5z" fill="#E3EDF9"/>
<path transform="translate(722,158)" d="m0 0 4 1 5 4-2 5-4 1-8-6v-2h5z" fill="#EAF2FA"/>
<path transform="translate(36,374)" d="m0 0 11 2v3l-5 1-5-1v3l3 1-1 4-6-1 1-8z" fill="#E6EFFA"/>
<path transform="translate(39,551)" d="m0 0 5 1-4 2-5 5v12l4 8 3 3-1 2-4-1-2-5-2-1-1-3v-13l2-6h2l1-3z" fill="#000132"/>
<path transform="translate(658,217)" d="m0 0 4 1 8 9-2 5-6-3-4-5 2-4z" fill="#010126"/>
<path transform="translate(162,150)" d="m0 0h6l4 5-2 5-3-1 2-4-3-3-4 1-15 15-3 1v-2h2l2-6 6-2 1-5 4-1z" fill="#000130"/>
<path transform="translate(677,560)" d="m0 0 1 2h3l2 4v16l-2-2-2 1-1-2-1-9z" fill="#010118"/>
<path transform="translate(244,375)" d="m0 0 3 2 1 3 4 4 1 6-2 2-5-3-3-6v-5z" fill="#000125"/>
<path transform="translate(758,189)" d="m0 0 1 3-5 5-8 9-1 4h-2v-4l-2-1 2-4 11-9z" fill="#030532"/>
<path transform="translate(352,223)" d="m0 0 1 4h2l1-2 1 9 2 17v16h-1l-3-30h-1v-6l-2 1h-3z" fill="#F3FDFE"/>
<path transform="translate(567,61)" d="m0 0 3 1v3l-6 7-3 3h-3v-6l2-2 2-1v-4z" fill="#FDFEF6"/>
<path transform="translate(860,361)" d="m0 0h8l1 9-4-1-2 2h-2l-3-6v-3z" fill="#E9F1FA"/>
<path transform="translate(59,325)" d="m0 0 9 2 12 5 6 1-2 1-1 2-10-3-5-3-6-1-4 4-2-1z" fill="#000133"/>
<path transform="translate(846,62)" d="m0 0h1v6l-9 11-6 5-3-1 14-16z" fill="#010126"/>
<path transform="translate(391,25)" d="m0 0h8v2l-7 2h-10l-15 2-5 1h-6l4-2 24-4z" fill="#000133"/>
<path transform="translate(156,610)" d="m0 0h2l-1 10-1 9 6 2 1 4-3 3-1-4-4-2-1-3v-15z" fill="#FAFDF8"/>
<path transform="translate(175,170)" d="m0 0h3l2 5-8 7-4-1-1-4z" fill="#00034E"/>
<path transform="translate(519,421)" d="m0 0h7l3 13h-4v-10h-3l-1 10h-3v-10z" fill="#F3FDFE"/>
<path transform="translate(226,329)" d="m0 0 2 2h5l1 1h5v2l-6 3h-3l-1 2-1 3 2 2h-3l-1-1v-7l-2-1z" fill="#01011D"/>
<path transform="translate(803,222)" d="m0 0 4 2 1 4-1 7-10 5-4 1-1 3-4 2-3-1 17-11 3-2-1-4-2-5z" fill="#000133"/>
<path transform="translate(132,197)" d="m0 0h2l-1 3h-2v4l7 2v5h2v2h2v2l5 2v2l-4-2-16-12 2-5z" fill="#000132"/>
<path transform="translate(796,35)" d="m0 0 4 1v2l2-1h8v5l-10 1-5-2z" fill="#FCFDF7"/>
<path transform="translate(559,422)" d="m0 0h2v5h2v3h2l-2 4-3 1-1-7-2 6-3 1-1-3 3-9z" fill="#F4FDFE"/>
<path transform="translate(391,421)" d="m0 0 8 1v13h-2l-1-12-2 1v11l-4-1v-12z" fill="#F3FDFE"/>
<path transform="translate(381,94)" d="m0 0h8v2l-29 6-8 1 4-3 16-4z" fill="#000133"/>
<path transform="translate(360,59)" d="m0 0 4 5 1 8 3 2 13 1v1l-10 2h-8l-3-14z" fill="#000133"/>
<path transform="translate(322,445)" d="m0 0h10l1 3-1 1-1 10-2-1-1-11h-3l-1 11-2 1-1-13z" fill="#F6FDFE"/>
<path transform="translate(814,571)" d="m0 0 1 4-2 12-2 1-2 5-2 7-4 9-2-2 8-21z" fill="#000131"/>
<path transform="translate(444,479)" d="m0 0h11l4 2-4 3-10 1-4-2 1-3z" fill="#FCFDFD"/>
<path transform="translate(778,275)" d="m0 0 3 1 1 4 2 1 9 19 5 6v7l-3-4-12-24-5-8z" fill="#000132"/>
<path transform="translate(123,190)" d="m0 0 2 1-11 14-8 10v3l3 3-5-1-1-4 4-8h2l2-4 9-10 1-2h2z" fill="#000135"/>
<path transform="translate(431,44)" d="m0 0 4 1 6 12-2 10-3 7-4 3 2-4 3-9-1-10-3-6z" fill="#000133"/>
<path transform="translate(470,760)" d="m0 0 9 5-4 3h-8l-3-1-1 2-1-2 3-4h2v-2z" fill="#000133"/>
<path transform="translate(549,644)" d="m0 0 4 1 11 1 11 2v1h-8v1h-12l-6-2-1-3z" fill="#01011E"/>
<path transform="translate(806,633)" d="m0 0 4 4 28 11v1h-6l-5-1-8-3-3-3-9-3z" fill="#000131"/>
<path transform="translate(444,421)" d="m0 0 7 1 1 10-1 3h-1l-2-11-1 1v10h-3l-1-9z" fill="#F3FDFE"/>
<path transform="translate(226,134)" d="m0 0 3 3 1 4v7l-5 5-8 5-2-1 8-6 3-7z" fill="#000133"/>
<path transform="translate(285,126)" d="m0 0 1 2-27 14h-4l5-4 10-6 9-3z" fill="#000132"/>
<path transform="translate(542,445)" d="m0 0h5v2l-2 1-1 8-5 1-2-1v-5h2v-5z" fill="#F4FDFE"/>
<path transform="translate(856,376)" d="m0 0 5 1 2 4-2 1h-8l-2 2-8-1 5-4z" fill="#FDFEF6"/>
<path transform="translate(382,717)" d="m0 0 1 2 9 1 7 2 1-2-1 11h-4l-3-7-11-5z" fill="#F4FDFE"/>
<path transform="translate(638,84)" d="m0 0 4 1 5 3 1 10-2 9-3 5-2-1 4-11-1-7-4-6z" fill="#000132"/>
<path transform="translate(789,51)" d="m0 0h2v3h2l1-3 1 3-1 13-4-1-1-2z" fill="#000131"/>
<path transform="translate(484,445)" d="m0 0 4 1 1 2-1 11h-4l-3-5v-5l3 1v-1z" fill="#F4FDFE"/>
<path transform="translate(25,408)" d="m0 0h2l-2 29-2 4-1-3v-9l2-18z" fill="#000131"/>
<path transform="translate(399,222)" d="m0 0h3l3 3 6 4v2l-6 1-8-4-1-5h3z" fill="#01011E"/>
<path transform="translate(480,131)" d="m0 0 8 1 5 4 3 2 3 6 2 1v2h6l-1 2-6-1-6-7-9-6-5-2z" fill="#F3FDFE"/>
<path transform="translate(434,126)" d="m0 0h29l7 2v1l-37-1z" fill="#F4FDFE"/>
<path transform="translate(345,56)" d="m0 0 2 1 6 25v7l-2-2-3-12-2-11-1-1z" fill="#000132"/>
<path transform="translate(842,629)" d="m0 0 4 1-3 1-1 2h-3l1 2 3 1v2l-10-2-4-2v-3z" fill="#000134"/>
<path transform="translate(656,484)" d="m0 0 5 1 3 5-1 9-2-3-3-1-3-7z" fill="#010121"/>
<path transform="translate(843,466)" d="m0 0h13v1l-8 1-2 5v2h9l1 2-13 1-1-2z" fill="#F2F8FD"/>
<path transform="translate(685,170)" d="m0 0 5 2 2 1v2l4 2 5 4 4 4 5 4v2l4 2 2 4-4-2-5-5-10-9-11-9z" fill="#000135"/>
<path transform="translate(301,757)" d="m0 0 3 3 1 9 3 9h-2l-3-5-1-10-6 1-5 4 2-4z" fill="#F9FDF9"/>
<path transform="translate(868,361)" d="m0 0 3 3 5 23-1 4h-2l-5-26z" fill="#000132"/>
<path transform="translate(693,160)" d="m0 0h2l1 4 10 9 9 7 2 1-1 2-5-2-7-6-5-5-6-4z" fill="#000132"/>
<path transform="translate(408,548)" d="m0 0h2l1 5 4 1 21 1v1h-28l-4-2z" fill="#D1E4F7"/>
<path transform="translate(318,492)" d="m0 0h2l7 9-1 2h-2l-3 8h-1l-2-13z" fill="#9FC1EE"/>
<path transform="translate(89,265)" d="m0 0h6l-1 7 4-1 1 4-4 1-4-2v-2l-4-1 1-5z" fill="#000356"/>
<path transform="translate(605,96)" d="m0 0h1l1 9 4 7 11 6v1l-6 1-5-5-3-1-4-9v-8z" fill="#000133"/>
<path transform="translate(408,86)" d="m0 0h6l2 1v2l22 1v1l-13 1h-11l-7-4z" fill="#000132"/>
<path transform="translate(757,39)" d="m0 0h2l1 14 2 10-4-2-2-8v-13z" fill="#00012E"/>
<path transform="translate(855,332)" d="m0 0v3l-6 5-5 5-8 7-4-1 15-13z" fill="#000132"/>
<path transform="translate(165,161)" d="m0 0 4 1 3-1-2 4-7 6h-5v-4z" fill="#000135"/>
<path transform="translate(509,632)" d="m0 0h5l4 3 10 4-1 2-10-2-10-4v-2z" fill="#010121"/>
<path transform="translate(845,423)" d="m0 0 1 2 16 1-5 5-10-1v-2h-2z" fill="#FBFDF8"/>
<path transform="translate(418,344)" d="m0 0h2l-2 4-8 6-1 3 7 2v1h-13l-1-3 9-7z" fill="#F4FDFE"/>
<path transform="translate(233,218)" d="m0 0 2 1 2 2-1 4-3 4-7-1 2-4z" fill="#00012B"/>
<path transform="translate(721,202)" d="m0 0 4 2 5 4 7 9 5 5v2h2l1 4h2l-1 3-12-14-13-14z" fill="#000133"/>
<path transform="translate(34,498)" d="m0 0 2 1 1 7 10-1h11l-2 2-15 2h-6z" fill="#000133"/>
<path transform="translate(388,160)" d="m0 0 2 3-3 5-4 5-4-1v-5l4-2z" fill="#01011E"/>
<path transform="translate(441,648)" d="m0 0 18 1v2l-10 2h-6l-2-1z" fill="#00013C"/>
<path transform="translate(687,118)" d="m0 0 4 2 1 5-3 6-4 1-2-4h2v-7z" fill="#FDFEF6"/>
<path transform="translate(504,556)" d="m0 0 5 1-1 3h-2l-2 4-4 2v-2h-2l1-7z" fill="#01011B"/>
<path transform="translate(859,385)" d="m0 0h4v5l-5-1h-8l-7 2-6 2-1-3 12-3z" fill="#000133"/>
<path transform="translate(410,276)" d="m0 0 2 1-1 2 3 1-1 3-4 2-2-1v-2h-2l-1 4-5 2v-3z" fill="#010120"/>
<path transform="translate(577,494)" d="m0 0h1l-1 14h-1l-1-6-5 2-7 6 2-4zm-16 16 2 1-3 2z" fill="#D4E4F7"/>
<path transform="translate(513,421)" d="m0 0h5l-2 4h-2v5l2 5-4-1-3-5 1-5h2z" fill="#F5FDFE"/>
<path transform="translate(171,379)" d="m0 0h2l-2 5-6 9-4-1 1-4h2v-7h3l1 2z" fill="#010121"/>
<path transform="translate(744,187)" d="m0 0 2 1-7 7-1 3 3 1 4-1v3l-3 2-5-1-3-3v-3h2l2-4z" fill="#E5EEF9"/>
<path transform="translate(427,600)" d="m0 0 4 1-2 3-4 1v2l6 2-2 2-5-1-4-3 1-5z" fill="#00012A"/>
<path transform="translate(441,443)" d="m0 0 7 1h3l1 4h-9l-3 9-1-5z" fill="#F5FDFE"/>
<path transform="translate(484,420)" d="m0 0h4v9l-1 7-4-1z" fill="#F8FDFE"/>
<path transform="translate(36,412)" d="m0 0 2 4 5 2 6-1v2h10l2 2h-13l-12-1-1-4z" fill="#000133"/>
<path transform="translate(198,183)" d="m0 0 2 1-5 5h-2l-1 3-8 7-8 8-1-2 7-8 5-5 5-4h2l1-4z" fill="#000133"/>
<path transform="translate(623,130)" d="m0 0 10 4 12 5v4l-6-2-16-9z" fill="#000133"/>
<path transform="translate(361,851)" d="m0 0h14l-1 5-3 8-2-4v-4-1l-7-2z" fill="#000132"/>
<path transform="translate(52,568)" d="m0 0 2 1v6l-5 5-8-2 1-3h3 3 2l1-6z" fill="#FDFEF6"/>
<path transform="translate(424,553)" d="m0 0h16v2l5-2h11v1l-13 2-23-1z" fill="#F3FDFF"/>
<path transform="translate(672,109)" d="m0 0h3v2l5 2v2l-3 1-4 6-2-2v-9z" fill="#F6F9FC"/>
<path transform="translate(171,578)" d="m0 0h2l-1 5-4 5-4 2h-5l-1-4 6 1 1-3h2l2-5z" fill="#F9FDF8"/>
<path transform="translate(565,421)" d="m0 0 5 1v12h-4l-2-12z" fill="#F4FDFE"/>
<path transform="translate(608,198)" d="m0 0 6 2 10 1v3l-12-1-9-2 2-2z" fill="#01011B"/>
<path transform="translate(764,174)" d="m0 0h3l5 6 3 3-3 7-4 2 2-5-1-5-5-6z" fill="#000134"/>
<path transform="translate(225,616)" d="m0 0 4 1 2 3-1 8-5-3-2-3 1-4z" fill="#010123"/>
<path transform="translate(760,172)" d="m0 0 3 1h-2l-2 4-12 9-7 6-3-1 8-7 11-8 3-1z" fill="#000134"/>
<path transform="translate(530,655)" d="m0 0 6 1-2 5-1 2h-2l-1-1-1 3-4-1 2-5z" fill="#00034E"/>
<path transform="translate(843,478)" d="m0 0h27v11l-2-1-2-7-2-1-21-1z" fill="#000130"/>
<path transform="translate(397,444)" d="m0 0h3l1 4 3 1 4 9-4 1-6-11z" fill="#F3FDFE"/>
<path transform="translate(694,118)" d="m0 0 3 3v7l-6 10-7 6-4-1 6-3 6-9 2-4z" fill="#000134"/>
<path transform="translate(795,34)" d="m0 0h14l4 2-1 4h-2v-3l-10 1-2-1v-2h-2l-1 3-1-3z" fill="#D6E5F7"/>
<path transform="translate(668,617)" d="m0 0 3 2 2-1-1 4-5 5-4-1 1-5z" fill="#01011F"/>
<path transform="translate(461,488)" d="m0 0 2 2 4 10v2l4 2h-2v7l2 1h-4l-4-15-2-5z" fill="#F3FDFE"/>
<path transform="translate(432,444)" d="m0 0 4 1 1 10-1 2-6 1-1-2h4z" fill="#F4FDFE"/>
<path transform="translate(767,192)" d="m0 0 4 2 7-1-4 3-11 6-2 1 1-5z" fill="#00012F"/>
<path transform="translate(431,55)" d="m0 0 3 1v11l-5-1v-2h2v-2h-2l-2-4 1-2z" fill="#FDFEF6"/>
<path transform="translate(879,476)" d="m0 0h1v13h-10v-5h6l2-1z" fill="#CFE3F7"/>
<path transform="translate(469,443)" d="m0 0 4 1v15l-2 1-2-1z" fill="#F4FDFE"/>
<path transform="translate(456,421)" d="m0 0h6l-1 3-1 11h-3l-1-6z" fill="#F3FDFE"/>
<path transform="translate(676,121)" d="m0 0h2l1 4-3 6-4 1-2-1v-3h2l1-4z" fill="#000457"/>
<path transform="translate(579,83)" d="m0 0 6 1 2 3-1 5-5 2 1-7-5-1z" fill="#DFEAF9"/>
<path transform="translate(460,596)" d="m0 0h10l-2 5-6 2-3-3z" fill="#FDFDFD"/>
<path transform="translate(718,482)" d="m0 0m-2 1h2l1 5-8 7-4-2 5-5h2l-1-3z" fill="#01011F"/>
<path transform="translate(527,444)" d="m0 0h7l1 3-2 1-1 12-2-1-2-13z" fill="#F4FDFE"/>
<path transform="translate(595,493)" d="m0 0h1v10l-4 3h-7l-2 1v-3l10-2v-6z" fill="#EEF9FD"/>
<path transform="translate(493,444)" d="m0 0h2l1 3-2 13-3-1v-9l1-3h-2v-2z" fill="#F3FDFE"/>
<path transform="translate(270,423)" d="m0 0 2 1 4 4 1 4-1-2v4l-2 1v-2l-4-1-3-2z" fill="#01011D"/>
<path transform="translate(360,421)" d="m0 0 4 1v12l-3 1-1-2z" fill="#F3FDFE"/>
<path transform="translate(699,629)" d="m0 0 1 3-4 16-1 13-2-2 2-19 2-10z" fill="#FBFDF7"/>
<path transform="translate(175,577)" d="m0 0 5 2 3 5-3 7-5 1 2-4h2l-1-5-3-3z" fill="#FBFDF7"/>
<path transform="translate(69,553)" d="m0 0h2l3 8v13l-2 5-3 2-3-1 5-5 1-9-2-9z" fill="#000134"/>
<path transform="translate(431,768)" d="m0 0 7 1 1 3-1 1h-9v2l-4 1 3-5z" fill="#000131"/>
<path transform="translate(559,653)" d="m0 0h8l5 1-3 2h-2l-1 5-6-4z" fill="#EDF8FD"/>
<path transform="translate(478,271)" d="m0 0 5 1 5 4-1 3-4-3-2 3-5-5z" fill="#000125"/>
<path transform="translate(761,249)" d="m0 0 5 5 2 1 2 5 3 3 5 10-1 2-7-11-9-13z" fill="#000134"/>
<path transform="translate(240,151)" d="m0 0 2 1-15 11-3 1 1-3 3-3h2l1-4z" fill="#000133"/>
<path transform="translate(714,137)" d="m0 0h2v2l-6 5-7 8-6 7-1-3 5-5 7-8 5-5z" fill="#000133"/>
<path transform="translate(558,138)" d="m0 0 6 4 8 6 1 7-3-1v-6l-6-2-7-6z" fill="#F4FDFE"/>
<path transform="translate(441,640)" d="m0 0h12l1 3-2 1h-11z" fill="#000133"/>
<path transform="translate(451,572)" d="m0 0 18 1v1l-5 1 4 2h-16v-3z" fill="#A0C2EE"/>
<path transform="translate(565,558)" d="m0 0h2l-1 7-1 5-3-4h-4l2-5z" fill="#E7F4FC"/>
<path transform="translate(39,558)" d="m0 0h2l1 9-4 4-2-4 1-8z" fill="#FDFEF7"/>
<path transform="translate(364,540)" d="m0 0 5 1 4 4-1 3h-3v-2h-5l-2-5z" fill="#F0F6FC"/>
<path transform="translate(816,256)" d="m0 0 3 1-24 13-2-1 3-1v-2l12-6z" fill="#000132"/>
<path transform="translate(743,799)" d="m0 0 2 1-10 9-8 6h-2l2-4 4-3 4-2 1-2h3l2-4z" fill="#000133"/>
<path transform="translate(368,445)" d="m0 0h3l3 5 1 6-1 3h-2l-2-7-3-5z" fill="#F5FDFE"/>
<path transform="translate(457,442)" d="m0 0h2l4 10v6l-3 1-2-10-2-4z" fill="#F3FDFE"/>
<path transform="translate(841,327)" d="m0 0 2 1v3l-5 3h-4l-1-5 1-1z" fill="#000139"/>
<path transform="translate(532,63)" d="m0 0h1v14l-2 7-2-1 1-12 1-7z" fill="#000132"/>
<path transform="translate(144,789)" d="m0 0h3l4 4v2l5 2 1 2 3 1 6 6h-4l-10-9-8-7z" fill="#000134"/>
<path transform="translate(639,789)" d="m0 0h2l-1 3-6 3h-2v2l-8 3-5 2 1-3 15-8z" fill="#000133"/>
<path transform="translate(404,490)" d="m0 0 4 2v8l-2 2-3-4v-7z" fill="#FDFEF6"/>
<path transform="translate(387,449)" d="m0 0 4 1 3 6v3l-3 1-3-3-1-2z" fill="#F7FDFE"/>
<path transform="translate(457,260)" d="m0 0h6l3 5 2-1v2l2 1 1 3-4-1-10-7z" fill="#010121"/>
<path transform="translate(262,89)" d="m0 0 4 3 1 8-5-2-2-6-2-1z" fill="#FDFEF6"/>
<path transform="translate(577,86)" d="m0 0 5 1 1 3-2 4h-5l-2-4z" fill="#FCFDF8"/>
<path transform="translate(823,609)" d="m0 0h2l2 3 5-1 4 4-5 1-6-3-1 3-4-1 2-4z" fill="#FDFEF7"/>
<path transform="translate(844,571)" d="m0 0 8 1 2 1v3h-11z" fill="#000133"/>
<path transform="translate(436,421)" d="m0 0h4l1 4-1 10h-3z" fill="#F9FDFE"/>
<path transform="translate(74,323)" d="m0 0h6l3 2v2l2 1-4 2-8-5z" fill="#FDFEF6"/>
<path transform="translate(564,281)" d="m0 0 7 1 2 6h-5v2h-2z" fill="#000353"/>
<path transform="translate(456,254)" d="m0 0 5 2 5 5h-11l-2-4 3-1z" fill="#000129"/>
<path transform="translate(768,241)" d="m0 0 5 5 2 3 5-1 5-2-5 5-5 2v-2l-4-2-3-5z" fill="#000132"/>
<path transform="translate(312,113)" d="m0 0m-1 1m-2 1 3 1-3 2-19 8h-2v-2l12-5z" fill="#000135"/>
<path transform="translate(813,724)" d="m0 0 2 1-9 12-5 6-1-3 3-1 2-5 7-9z" fill="#000134"/>
<path transform="translate(779,193)" d="m0 0 6 1v2h2l2 4v8l-3-1 1-4-8-9z" fill="#000133"/>
<path transform="translate(157,603)" d="m0 0h3l-1 4h-5v2l-6 4-3-1 4-2v-2l5-4z" fill="#FBFDF7"/>
<path transform="translate(850,504)" d="m0 0 21 1 6 2v1l-17-1-9-1z" fill="#000133"/>
<path transform="translate(546,336)" d="m0 0h2l2 3v19l-2-1v-15l1-2-4-2z" fill="#EBF7FD"/>
<path transform="translate(561,59)" d="m0 0 2 1-5 6-4 11v3h-2v-8l5-10z" fill="#000136"/>
<path transform="translate(864,568)" d="m0 0 5 3 2 4-3 7-2 1v-11l-2-1z" fill="#000131"/>
<path transform="translate(570,547)" d="m0 0h7v3l-3 3-2 3-1-3-2-1v-4z" fill="#010119"/>
<path transform="translate(566,447)" d="m0 0h3l1 2v9l-3 1-1-1z" fill="#FBFDFE"/>
<path transform="translate(604,396)" d="m0 0 1 2 6 2v3l-2 1-1 2h-2l-4-6z" fill="#01011F"/>
<path transform="translate(844,374)" d="m0 0m-7 1h7v2l-11 2 2 6-1 4-2-2v-9z" fill="#000134"/>
<path transform="translate(24,323)" d="m0 0 1 4-3 9-2 9-3 3 1-7z" fill="#000133"/>
<path transform="translate(525,308)" d="m0 0 2 1-1 4 2 1v2l5 2-1 3-4-2-6-6 1-4z" fill="#010120"/>
<path transform="translate(306,310)" d="m0 0 4 1v2l6 1-1-4h2v8l-6-1-5-5z" fill="#F3FDFE"/>
<path transform="translate(58,249)" d="m0 0v3l-8 15-2 5h-2l2-6 8-15z" fill="#000130"/>
<path transform="translate(347,33)" d="m0 0 4 1-3 2-15 3-9 1 4-2z" fill="#000130"/>
<path transform="translate(667,851)" d="m0 0 3 1-18 10h-3v-2l12-6z" fill="#000134"/>
<path transform="translate(22,598)" d="m0 0 3 3 3 10 3 5-1 5-2-2-6-18z" fill="#000132"/>
<path transform="translate(44,519)" d="m0 0h8l-4 2-7 1-1 5-1 4h-1l-2-10 1-1z" fill="#000134"/>
<path transform="translate(337,421)" d="m0 0 4 3-1 10h-2l-1-4v-4l-2-1v-3z" fill="#F4FDFE"/>
<path transform="translate(875,418)" d="m0 0h3v11l-5-1 1-9z" fill="#E5EEF9"/>
<path transform="translate(433,239)" d="m0 0 5 2-2 4 2 1-4 2-6-4z" fill="#00012E"/>
<path transform="translate(121,201)" d="m0 0 1 2 2 1-1 5-5 2-2-1v-3l2-1z" fill="#FCFDF6"/>
<path transform="translate(415,125)" d="m0 0h15v2l-22 1 3-2z" fill="#F3FDFE"/>
<path transform="translate(618,87)" d="m0 0h2l-2 5 1 4h-6l-1-3 3-5z" fill="#FDFEF6"/>
<path transform="translate(798,3)" d="m0 0h13l6 2v1h-26l2-2z" fill="#01011E"/>
<path transform="translate(695,835)" d="m0 0 2 1-14 9-5 2 2-4z" fill="#000133"/>
<path transform="translate(324,501)" d="m0 0 7 3-1 2-5 1-2 2-1 10h-1v-11z" fill="#E7F3FB"/>
<path transform="translate(412,448)" d="m0 0h3v3h2v6l-4 1-1-2z" fill="#F8FDFE"/>
<path transform="translate(568,444)" d="m0 0h9l2 1-1 4-8-2-1 2v-2h-2z" fill="#F7FDFE"/>
<path transform="translate(55,317)" d="m0 0 1 2h6l3-2 3 3-3 2h-7l-3 1-1-5z" fill="#FDFEF6"/>
<path transform="translate(57,299)" d="m0 0 1 4-7 16h-1v-6l4-7 1-5z" fill="#000132"/>
<path transform="translate(344,295)" d="m0 0 4 1-3 6h-9l-1-2 6-1-1-2h4z" fill="#010121"/>
<path transform="translate(829,81)" d="m0 0 2 2-4 4-5 2-4-1v-2l10-4z" fill="#00012F"/>
<path transform="translate(521,682)" d="m0 0 3 1-1 9v8l-2-3-2-10z" fill="#F3FDFF"/>
<path transform="translate(494,633)" d="m0 0h1l1 28-4 2 1-4z" fill="#F3FDFF"/>
<path transform="translate(452,448)" d="m0 0 4 1v10h-3l-1-3z" fill="#F3FDFE"/>
<path transform="translate(492,422)" d="m0 0 3 1 1 13-3-1-2-9z" fill="#F8FDFE"/>
<path transform="translate(368,421)" d="m0 0 3 1v13l-3-1z" fill="#F7FDFE"/>
<path transform="translate(869,420)" d="m0 0h6l-1 7h-7l2-1-1-4z" fill="#FDFEF6"/>
<path transform="translate(549,304)" d="m0 0h2v19h-3z" fill="#F3FDFE"/>
<path transform="translate(801,228)" d="m0 0 2 1-1 4-4 2-6-3 1-3h5v2h2z" fill="#FDFEF6"/>
<path transform="translate(450,764)" d="m0 0 5 2 3 3-8 1-5-1z" fill="#000132"/>
<path transform="translate(834,608)" d="m0 0 18 6 2 3-6-1-14-6z" fill="#000132"/>
<path transform="translate(335,445)" d="m0 0h4l-2 4-1 10h-2l-1-11z" fill="#F8FDFE"/>
<path transform="translate(592,381)" d="m0 0 8 4 1 6-5-2-1-2h-2z" fill="#01011B"/>
<path transform="translate(565,352)" d="m0 0h4v2l5 1 2 5v3l-3-1-1-3-3-2-4-3z" fill="#01011A"/>
<path transform="translate(427,331)" d="m0 0h5l-1 5-8 7v-3l6-6h-8v-2z" fill="#F3FDFE"/>
<path transform="translate(656,214)" d="m0 0 4 2 2 5-5 2-4-4 2-4z" fill="#000129"/>
<path transform="translate(188,178)" d="m0 0 4 1-4 4-3 1-6 7-2-2z" fill="#000131"/>
<path transform="translate(721,136)" d="m0 0 5 2 3 3v2l4 2 5 5 1 2-4-2-14-13z" fill="#000135"/>
<path transform="translate(626,871)" d="m0 0 4 1-17 7-3-1 9-5z" fill="#000134"/>
<path transform="translate(468,858)" d="m0 0h7l-2 4-16-2v-1z" fill="#000135"/>
<path transform="translate(366,676)" d="m0 0h7l1 2-4 1-9 1-5 2-4-1 4-2z" fill="#EFF9FE"/>
<path transform="translate(139,599)" d="m0 0m-2 1h2l1 9 4 4-6-1-2-4v-6z" fill="#FDFEF6"/>
<path transform="translate(54,547)" d="m0 0h8l3 1-1 2h-9l-4 2-2 2-1-3 1-2z" fill="#000132"/>
<path transform="translate(363,302)" d="m0 0 2 1 2 5 3 2-3 3h-3l-2-10z" fill="#EAF6FD"/>
<path transform="translate(425,238)" d="m0 0h8l-1 4-1 1-7-1-1-3z" fill="#01011F"/>
<path transform="translate(382,214)" d="m0 0 5 1 5 2-1 3-4 2-5-1 1-2h4v-2l-5-2z" fill="#000131"/>
<path transform="translate(243,639)" d="m0 0 2 2h5v3l2 2-4 1-6-4z" fill="#010123"/>
<path transform="translate(709,610)" d="m0 0 4 4h2l-2 4-3 1v-2l-3-2v-4z" fill="#FBFDF6"/>
<path transform="translate(331,577)" d="m0 0 4 2-1 7h-3v-2h-2v-5z" fill="#01011C"/>
<path transform="translate(51,469)" d="m0 0h6l1 4-6 1-3-1v-3z" fill="#FDFEF6"/>
<path transform="translate(406,441)" d="m0 0 4 1 1 1v5l-5-1-1 2-1-4z" fill="#F4FDFE"/>
<path transform="translate(329,422)" d="m0 0h5l-3 7h2l-1 6h-3v-3h2l-2-4z" fill="#F3FDFF"/>
<path transform="translate(651,132)" d="m0 0 5 2 14 8-3 1-7-4-6-3-1-2h-2z" fill="#000135"/>
<path transform="translate(301,68)" d="m0 0m-1 1 1 2h2l1-2 5 1-5 5-4 1-1-3z" fill="#FDFEF7"/>
<path transform="translate(428,883)" d="m0 0h3l1 3-3 1-2-1-1 2h-7l-3-3 2-1h5l3 1h2z" fill="#FDFEF6"/>
<path transform="translate(472,882)" d="m0 0h2l1 6-3 3-3-1 2-7z" fill="#FDFEF7"/>
<path transform="translate(716,680)" d="m0 0h2l-1 5h-9l-1-3z" fill="#FBFDF7"/>
<path transform="translate(74,671)" d="m0 0 9 1 1 3-4 2-5-1z" fill="#D4E5F8"/>
<path transform="translate(328,551)" d="m0 0h3v2l4 2-1 3h-4l-1 2z" fill="#DFEEFA"/>
<path transform="translate(352,539)" d="m0 0h9l2 6-9-3-2-1z" fill="#F3FDFE"/>
<path transform="translate(54,511)" d="m0 0h3v6l-1 1h-6l-2-3 6-2z" fill="#FDFEF9"/>
<path transform="translate(199,493)" d="m0 0 10 6-4 2-5-2-3-2h2l-1-3z" fill="#00012C"/>
<path transform="translate(719,479)" d="m0 0 4 2v3l-3 3-2-1v-3l-5 2 5-5z" fill="#00012C"/>
<path transform="translate(60,361)" d="m0 0h4l-1 4-8 1-2-3z" fill="#FDFEF8"/>
<path transform="translate(334,303)" d="m0 0h5l-3 1 3 6h5v4l-5-1-4-5z" fill="#EEF9FE"/>
<path transform="translate(508,290)" d="m0 0 4 2-1 4-6 2-1-4 3-1z" fill="#01011A"/>
<path transform="translate(672,101)" d="m0 0 5 2 1 2-7 2-4 5-2-1z" fill="#D6E6F8"/>
<path transform="translate(332,84)" d="m0 0h1v7l-2 5-6 5-2-1 7-8z" fill="#000136"/>
<path transform="translate(528,47)" d="m0 0 8 1v8l-3 6-1-4 2-9-6-1z" fill="#000133"/>
<path transform="translate(760,28)" d="m0 0h2l1 3-3 9h-4l3-9z" fill="#000135"/>
<path transform="translate(681,668)" d="m0 0 5 3-1 5-3 2-1-1-1-8z" fill="#FEFEFE"/>
<path transform="translate(159,646)" d="m0 0 9 5 3 2v5l-1-4h-7l-3-5z" fill="#F9FDF9"/>
<path transform="translate(469,603)" d="m0 0 7 1 2 4-6 1-3-2z" fill="#F5FDFE"/>
<path transform="translate(897,510)" d="m0 0 2 2 1 5v7l-1-2h-3z" fill="#D5E6F8"/>
<path transform="translate(848,508)" d="m0 0 8 1v1h-5l-1 6-2-2-4-2 1-3z" fill="#FDFEF6"/>
<path transform="translate(297,475)" d="m0 0h2l2 15 2 6-4-2-2-14z" fill="#F3FDFF"/>
<path transform="translate(297,440)" d="m0 0h2v11l-1 2-4-1 2-4z" fill="#EEF9FE"/>
<path transform="translate(378,423)" d="m0 0 4 1v4h-2v7l-3-1v-7z" fill="#F3FDFE"/>
<path transform="translate(831,277)" d="m0 0 3 1 3 6-1 3-7-6v-3z" fill="#DEEAF9"/>
<path transform="translate(394,131)" d="m0 0 3 1-6 11h-2l1-7z" fill="#F3FDFE"/>
<path transform="translate(634,107)" d="m0 0h2l1 4-3 3-6 1 2-4h2z" fill="#FDFEF6"/>
<path transform="translate(394,92)" d="m0 0h18v1l-17 2h-5z" fill="#000133"/>
<path transform="translate(614,80)" d="m0 0h7l-3 2-5 3-4 6h-1v-5l5-5z" fill="#000133"/>
<path transform="translate(309,745)" d="m0 0 15 2v1l-18 1v-2z" fill="#F8FDF9"/>
<path transform="translate(440,636)" d="m0 0h13l-3 4h-8l1-2z" fill="#D2E2F7"/>
<path transform="translate(289,540)" d="m0 0h10l1 2 4 2-4 1-11-3z" fill="#010121"/>
<path transform="translate(331,481)" d="m0 0h3l-2 12-2 2-1-1 1-11z" fill="#EFF9FD"/>
<path transform="translate(843,466)" d="m0 0h13v1l-8 1-4 6h-1z" fill="#D5E4F7"/>
<path transform="translate(525,446)" d="m0 0h1v14l-3-1v-9z" fill="#FCFDFC"/>
<path transform="translate(260,330)" d="m0 0 9 1 3-1v2l3 1-3 1-6-1-3 2z" fill="#F3FDFF"/>
<path transform="translate(526,309)" d="m0 0 4 2 3 2-1 4-5-1z" fill="#00012C"/>
<path transform="translate(787,273)" d="m0 0 4 4 2 5-5-1-3-2z" fill="#000131"/>
<path transform="translate(463,260)" d="m0 0 5 1 5 4h-2v3l-2-1-2-2-2 1z" fill="#000131"/>
<path transform="translate(352,223)" d="m0 0 1 4h2l1-2v7l-4-1v2l-3-1z" fill="#E8F4FC"/>
<path transform="translate(198,148)" d="m0 0 9 1 1 2-2 3-7-2z" fill="#FDFEF6"/>
<path transform="translate(311,74)" d="m0 0 4 1 4 5 1 9-2-3-4-9z" fill="#000131"/>
<path transform="translate(800)" d="m0 0h15v3l-15-1z" fill="#E7F4FC"/>
<path transform="translate(559,646)" d="m0 0 11 1 5 1v1h-8v1h-6z" fill="#000135"/>
<path transform="translate(806,633)" d="m0 0 4 4 10 4v2l-9-2-4-2z" fill="#000134"/>
<path transform="translate(428,603)" d="m0 0 5 1v3l-2 1h-6v-4z" fill="#E6EFFA"/>
<path transform="translate(328,445)" d="m0 0h4l1 3-1 1-1 10-2-1z" fill="#F3FDFE"/>
<path transform="translate(771,205)" d="m0 0h2l-1 3-9 6-3-1v-2z" fill="#04062A"/>
<path transform="translate(173,172)" d="m0 0 2 3-4 2 1 2v3l-4-1-1-4z" fill="#000135"/>
<path transform="translate(162,150)" d="m0 0h6l4 5-2 5-3-1 2-4-3-3-5 1-1-2z" fill="#000133"/>
<path transform="translate(605,49)" d="m0 0 6 1 11 5v1h-6l-4-3-7-3z" fill="#000134"/>
<path transform="translate(631,717)" d="m0 0h1v16l-5 1v-2l2-1z" fill="#FBFDF7"/>
<path transform="translate(107,662)" d="m0 0h2l-1 3-7 3-4 4-3-3z" fill="#000133"/>
<path transform="translate(872,508)" d="m0 0h6l1 1-1 10-2-4-2-3v-3z" fill="#D0E4F8"/>
<path transform="translate(595,386)" d="m0 0 6 5-1 5-5-5-2-4z" fill="#000136"/>
<path transform="translate(822,283)" d="m0 0m-1 1 7 1-1 4-5 1-2-1z" fill="#FDFEF6"/>
<path transform="translate(45,272)" d="m0 0h1l-1 7-5 9-2 1 3-9z" fill="#000130"/>
<path transform="translate(245,97)" d="m0 0h5l7 5 5 1 1 3-7-2-11-6z" fill="#000137"/>
<path transform="translate(704,617)" d="m0 0 5 3-1 3-5 4h-2l1-4h3z" fill="#FAFDF8"/>
<path transform="translate(172,591)" d="m0 0h2l-1 4 2 3h-6l-1-4z" fill="#F8FDF9"/>
<path transform="translate(405,426)" d="m0 0h2l1 6h4v3l-5 1-2-2z" fill="#F4FDFE"/>
<path transform="translate(899,406)" d="m0 0 1 4-2 11h-1l-1-6v-8l1 2h2z" fill="#D4E6F8"/>
<path transform="translate(38,354)" d="m0 0 1 3-2 6 9 1v1h-10l-1-5z" fill="#000135"/>
<path transform="translate(81,274)" d="m0 0 5 4 3 2-2 3-6-2-1-6z" fill="#FDFEF7"/>
<path transform="translate(94,249)" d="m0 0 10 2 5 5-5-2-6-2-7-1z" fill="#000137"/>
<path transform="translate(739,194)" d="m0 0h5v5l-4 1-3-3z" fill="#FDFEF6"/>
<path transform="translate(671,106)" d="m0 0h1v5h-2v4l-4-1-2 1 1-3 5-5z" fill="#FDFDFC"/>
<path transform="translate(464,55)" d="m0 0 4 1-1 4h-2l-1 4h-2v-8z" fill="#FDFEF6"/>
<path transform="translate(441,881)" d="m0 0h2v3h-2l-2 4-5 5-4-1 4-3 5-4z" fill="#000133"/>
<path transform="translate(524,881)" d="m0 0 3 1-6 3-13 1 4-2z" fill="#000133"/>
<path transform="translate(212,654)" d="m0 0h1v7h2l1 4v7l-2-2-2-8z" fill="#F9FDF9"/>
<path transform="translate(91,657)" d="m0 0 3 1 1 2-3 3-6-1 1-3z" fill="#EAF1F9"/>
<path transform="translate(453,640)" d="m0 0h7l1 4h-9l2-1z" fill="#7F9BCF"/>
<path transform="translate(742,610)" d="m0 0 5 1 4 3-7 2-2-1z" fill="#FEFEFE"/>
<path transform="translate(577,494)" d="m0 0h1l-1 14h-1l-1-6-3 1 2-6z" fill="#BED7F4"/>
<path transform="translate(599,447)" d="m0 0 6 2-5 7h-1z" fill="#E5F3FC"/>
<path transform="translate(583,369)" d="m0 0 3 1v9l-3-1-1-6z" fill="#020118"/>
<path transform="translate(744,187)" d="m0 0 2 1-7 7-1 2h-2l-1 3-1-4h2l2-4z" fill="#C5D9F4"/>
<path transform="translate(214,149)" d="m0 0 4 1-2 4-7-1 3-3z" fill="#FDFEF6"/>
<path transform="translate(670,122)" d="m0 0 2 1-4 8-2 1-1-5z" fill="#E8F1FB"/>
<path transform="translate(346,896)" d="m0 0h7l5 1v2l-12 1 3-2z" fill="#9FC1EE"/>
<path transform="translate(309,727)" d="m0 0m-3 1 5 1-4 5-2 3-1-7z" fill="#F9FDF8"/>
<path transform="translate(751,620)" d="m0 0 2 1-2 10-4 1 2-6z" fill="#FBFDF6"/>
<path transform="translate(402,561)" d="m0 0h9l-4 1 1 2 2-1 1 4h-3l-6-5z" fill="#C5DBF5"/>
<path transform="translate(494,425)" d="m0 0h3l2 4-1 5-2 2z" fill="#EBF6FD"/>
<path transform="translate(47,389)" d="m0 0 17 1v1l-5 1h-7l-5-2z" fill="#000131"/>
<path transform="translate(855,332)" d="m0 0v3l-6 5-4 4v-3l5-5z" fill="#000135"/>
<path transform="translate(288,300)" d="m0 0 6 3v2l4 1-8 1z" fill="#9FC1EE"/>
<path transform="translate(567,293)" d="m0 0h6l2 4-9 1 2-1z" fill="#000355"/>
<path transform="translate(437,242)" d="m0 0 2 2 1 5h3l2 2h-6l-4-4z" fill="#01011B"/>
<path transform="translate(586,192)" d="m0 0h9v2h5v1h-13z" fill="#F4FDFE"/>
<path transform="translate(152,167)" d="m0 0 3 1-1 5h-4l-2-2z" fill="#FDFEF6"/>
<path transform="translate(703,157)" d="m0 0h3l1 6-5 2v-2l-2-1h2l-1-3z" fill="#FDFEF6"/>
<path transform="translate(191,135)" d="m0 0 5 1 2 3-1 3-6-3z" fill="#FDFEF6"/>
<path transform="translate(408,72)" d="m0 0h8l1 4h-6z" fill="#FDFEF6"/>
<path transform="translate(268,870)" d="m0 0 9 1 6 4-3 1-12-5z" fill="#000134"/>
<path transform="translate(77,711)" d="m0 0 5 3 3 9-5-5-3-5z" fill="#000134"/>
<path transform="translate(581,650)" d="m0 0h14l-3 2-8 1z" fill="#000136"/>
<path transform="translate(517,636)" d="m0 0 10 2v3l-10-2z" fill="#01011B"/>
<path transform="translate(34,559)" d="m0 0h3v8l-3 4z" fill="#E8F0FA"/>
<path transform="translate(194,490)" d="m0 0 4 2-2 3h-2l-1 2-3-2v-2l4-1z" fill="#000127"/>
<path transform="translate(25,408)" d="m0 0h2l-1 13h-2v-10z" fill="#000135"/>
<path transform="translate(407,278)" d="m0 0 2 1-2 3h-2l-1 4-5 2v-3z" fill="#000128"/>
<path transform="translate(819,262)" d="m0 0 4 2-2 4h-2l-1 3-1-8z" fill="#FDFEF6"/>
<path transform="translate(658,217)" d="m0 0 4 1 2 6-4 2-2-4 2-2z" fill="#01011F"/>
<path transform="translate(632,113)" d="m0 0h3l1 4-4 2h-10v-1h9z" fill="#CFE1F6"/>
<path transform="translate(99,658)" d="m0 0h5l1 2-5 3h-4l-1-3z" fill="#FDFEF6"/>
<path transform="translate(263,648)" d="m0 0 3 1v4h-6l-3-3z" fill="#01011D"/>
<path transform="translate(207,500)" d="m0 0 2 1-1 4 5 1-1 2-4-1-4-4z" fill="#010121"/>
<path transform="translate(295,399)" d="m0 0 3 1v5l-5-1-2 4v-3z" fill="#E4F0FA"/>
<path transform="translate(783,230)" d="m0 0 3 1-10 7-5 1 3-3z" fill="#000135"/>
<path transform="translate(402,223)" d="m0 0 7 2 7 4-1 2-5-2-8-5z" fill="#00012D"/>
<path transform="translate(530,869)" d="m0 0h6l1 4-5 1h-2l-1-4z" fill="#FDFEF9"/>
<path transform="translate(415,844)" d="m0 0 3 2-6 3-4 4v-5z" fill="#000134"/>
<path transform="translate(320,817)" d="m0 0 9 2 5 2-4 1-10-3z" fill="#000131"/>
<path transform="translate(687,659)" d="m0 0h2v3l5 2 1-2-1 5-4-2-3-3z" fill="#FBFDF7"/>
<path transform="translate(451,637)" d="m0 0h10l-2 3h-9z" fill="#F4FDFE"/>
<path transform="translate(475,595)" d="m0 0 5 1-1 4-5 1v-5z" fill="#FDFEFC"/>
<path transform="translate(436,500)" d="m0 0 1 4-2 2-1-4-2 1h-6v-2z" fill="#F7FDFE"/>
<path transform="translate(380,498)" d="m0 0 5 2-2 4-4 1v-6z" fill="#F3FDFF"/>
<path transform="translate(35,431)" d="m0 0h5l-2 1-3 9h-1v-8z" fill="#000137"/>
<path transform="translate(91,340)" d="m0 0 1 3-3 9h-2l2-10z" fill="#000136"/>
<path transform="translate(416,280)" d="m0 0m-2 1 2 1-4 4 4 2h-9l4-5z" fill="#C1D8F4"/>
<path transform="translate(378,168)" d="m0 0 2 2-1 2 3 1-4 2h-5z" fill="#00012F"/>
<path transform="translate(208,120)" d="m0 0m-3 1 6 1v4l-5-1-2-2z" fill="#FDFEF7"/>
</svg>
