<?xml version="1.0" encoding="UTF-8"?>
<svg version="1.1" viewBox="0 0 2048 1261" width="1280" height="1280" xmlns="http://www.w3.org/2000/svg">
<path transform="translate(37,29)" d="m0 0h297l4 14 11 47 3 15 4 15 5 22 13 6 30 12 14 6 5-1 15-13 14-13 8-7 10-9 11-9 7-7 8-7 12-11 5-4 4 1 16 11 13 10 16 11 18 13 19 14 18 13 17 12 19 14 13 9-1 5-23 54-11 27-9 22v6l12 17 10 14 13 18 18-1 31-3 5-1 43-4 23-2 4 9 19 56 12 35 12 36 13 37-1 3-16 10-20 13-22 14-19 12-12 8-8 5-1 51v17l16 10 29 17 26 15 21 13 7 5-6 21-17 58-14 48-8 27-7 21h-20l-10-1-43-2-38-2h-12l-11 15-12 17-12 18 8 20 15 35 12 27 11 26v2l-16 12-16 13-17 13-16 12-12 10-19 14-11 9-14 11-26 20-5-2-16-15-11-10-11-9-8-8-11-9-16-15-8-7-6-5-9 2-36 12-16 6h-2l-1 10-18 89-5 21-1 1h-309l-1-1-1-39-2-107v-49l4 2 15 9 21 9 24 7 10 2 20 2h17l21-2 11-2 4 1 17 9 19 6 17 3h35l20-3 21-5 20-7 21-9 16-8 14-9 13-11 7-8 8-9 8-13 9-19 6-18 3-15 2-7 22-1 12-3 16-8 9-7 4-4h2v-2h2l2-4 6-8 7-14 4-14 2-9 1-13v-28l-1-14-5-21-2-5 1-5 9-8 16-8 16-4 7-1h19l21 3 21 6 10 3 6-18 6-24 4-20 4-33 1-13v-57l-3-30-4-24-6-25-8-26-11-28-12-25-11-19-13-20-14-19-13-16-11-13-7-7-7-8-18-18-11-9-14-12-18-13-15-10-15-9-18-10-19-9-31-12-12-4-36-9-24-4-33-3h-49l-26 2-35 5-9 1 3 12 25 1 23 2 25 4 24 5 27 8 25 9 27 11 24 12 24 14 18 11 19 14 10 9 7 10 9 19 4 11 2 7 3 12 2 11v10l-24-16-22-12-30-14-23-9-36-12-25-7-36-9-35-7-48-8-52-6-36-3-21-1v25h27l22 1 34 3 27 3 32 6 34 8 21 7v3l-5 4-6 10-4 12-7-1-22-8-36-11-34-8-29-5-31-3-22-1v16l9 3 57 13 42 10 40 9v28l-11-2-57-13-50-11-30-7v22l8 1 44 11 51 12 20 5 11 3 17 4 5 3 10 19 10 13 8 9v2l-17-1-28-5-34-8-28-8-41-14-37-13 1 24 9 4 40 13 43 12 42 11 12 3v2l-9 7-8 6h-20l-72-1-26-1-11 1v23l166 1-2 5-4 12-1 15 2 12 2 8h-11l-3-1-27-1-6-1-17-1-7-1-90-6h-2v24h20l62-2h10l-4 3-23 12-22 12-23 12-50 27h-3l2-64v-309l-1-181-1-101z" fill="#24407D"/>
<path transform="translate(248,641)" d="m0 0 5 1 17 7 4 2 1 46 2 18 1 14 2 17 6 28 6 23 7 20 11 24 14 23 13 17 9 10 8 7 12 10 10 7 19 10 10 5-4 16-8 18-7 10-10 12-11 9-14 9-15 7-18 6-17 4-24 3h-47l-16-2-2-1-2-27-1-30v-92l1-30 3-41 2-21 1-3 1-13 3-19 3-15 3-17 9-35 9-27z" fill="#24407D"/>
<path transform="translate(1721,344)" d="m0 0h25l13 1 16 34 11 25 16 35 9 20 2 1 8-16 13-27 9-20 12-26 12-25 2-2h28l15 1v214l-1 1h-44l-1-3-1-92-4 1-2 6-17 36-24 51-1 1h-8l-5-8-22-45-19-39-4-2-1 66-1 25h-61l-1-1v-6l10-1 1-198h-11v-5l1-1z" fill="#24407D"/>
<path transform="translate(219,628)" d="m0 0h11l-2 6-9 20-6 16h-2v6l-3 8-2 7-5 18-9 38-8 43-6 40-3 18-3 27-5 43-4 42-4 48-1 1h-35l-27-3-20-4-16-6-15-8-10-9-6-7-4-10v-10l3-15 8-24 8-18 15-30 10-17 10-18 24-38 11-17 13-19 21-31 13-18 20-28 16-21 13-18z" fill="#24407D"/>
<path transform="translate(1466,345)" d="m0 0h61l8 9 12 17 12 16 14 19 13 18 9 12 2 3h10v-20l-1-49v-25h47l2 78 1 78 1 58-2 1h-24l-14-18-9-13-12-16-10-14-14-19-10-13-11-16-14-18-2-3-4 1-2 2-1 126-1 1h-61l-1-1v-10l13-1v-164l-1-30-11-1-1-1v-6z" fill="#25417D"/>
<path transform="translate(470,496)" d="m0 0 12 3 14 7 5 5 2 4v7l-5 10-8 9-6 4-9 1-4-2h-6l-2 9 2 11 7 19 12 28 2 7 1 13-2 8-6 7-12 4-10 1-5 5-3 6 1 8 2 5v3l-11 2v16l1 4-16 6-2 4v7l3 8 6 8 9 6 10 4 5 1h24v4l-19 10-11 4-13 2h-9l-13-2-8-3-12-5-16-10-16-12-10-9-11-11-11-14-10-13-7-12 1-2 10 13 11 11 13 9 5 2 10 1 9-4 4-5 1-6-3-7-9-11-7-12-3-7-2-9v-15l1-3 1-14 3-11 4-13 8-15 9-10 5-4 10-5h15v4l-7 6 1 7 1 3 4 2 6 2h11l9-3 8-10 3-7-1-6-5-3-27-1-5-4 2-4 9-4 10-3 12-2 16-1 5-3 3-6 2-8 1-14z" fill="#24407D"/>
<path transform="translate(1088,345)" d="m0 0h147v39l-91 1-4 4v39h61l1 1 1 15v22l-6 2-52 1-4 3-1 6v35l1 3 3 1 91 1v41l-1 1h-62l-72-1-1-1-1-41-1-165-10-1v-5z" fill="#24407D"/>
<path transform="translate(296,664)" d="m0 0 2 2 8 20 10 20 13 21 10 13 9 10 15 14 13 9 16 8 13 5 17 3 7 1h19l21-3 19-5 7-2 3 10v36l-4 20-5 13-8 14-9 11-11 11-5 3h-2v2h-12l-18-5-21-9-17-10-16-12-13-12-9-10-13-18-10-18-6-12-8-22-8-32-4-25-2-20z" fill="#24407D"/>
<path transform="translate(1818,699)" d="m0 0h9l14 2 16 5 15 8 13 10 9 10 10 16 6 13 4 13 2 14v17l-2 15-5 15-8 16-8 11-9 10-15 11-16 8-14 4-6 1h-23l-6-2-7-1-12-5-11-6-13-10-9-9-7-10-8-15-5-15-3-19v-15l2-13 4-15 7-16 7-10 9-10 9-9 18-11 18-6zm-5 38-13 4-11 7-8 8-9 14-3 7-2 7v29l4 12 6 11 7 9 12 9 14 6h22l13-4 10-6 9-8 9-14 5-14 1-19-1-11-4-13-7-12-12-12-11-6-7-3-5-1z" fill="#24407D"/>
<path transform="translate(1348,339)" d="m0 0h24l14 3 16 6 21 11 15 11-1 5-10 12-11 14-10 13-4-1-4-2 2-4 4-7-1-5-9-7-9-3-8-1h-26l-16 4-12 7-8 8-8 13-5 17-1 6v26l4 18 8 16 7 8 10 8 10 5 12 3h24l8-2 11-6 9-7 7-6 2-3 4 1 16 16 5 6-1 4-7 8-12 12-10 7-12 6-15 4-8 1h-23l-16-3-13-5-15-8-13-11-10-11-9-14-6-13-6-20-2-12v-30l1-2 1-11 6-19 8-17 9-13 10-11 14-10 15-8 15-5z" fill="#24407D"/>
<path transform="translate(925,708)" d="m0 0h16l11 19 15 27 12 21 16 29 13 22 3-1 12-22 13-23 10-20 10-18 13-24 4-7 2 2 4 18 8 38 3 12 5 25 17 77v6l-1 1h-28l-4-13-10-46-7-26h-3l-2 5-18 30-14 23-15 25h-2l-11-18-14-21-15-23-12-19-4-2-3 9-3 16-5 21-3 11-6 26-2 2h-26l-1-1v-10l7-39 4-20 3-18 3-13 9-49 3-17v-4l-6-2-1-2z" fill="#24407D"/>
<path transform="translate(1272,708)" d="m0 0h54l13 18 13 19 10 13h6l5-5 14-20 12-18 6-7h41l-7 11-11 16-13 18-14 20-8 12-1 13 4 7 10 14 12 16 14 19 15 20 10 14v2h-41l-5-4-12-16-11-15-10-14-10-13-4-2-12 18-24 38-5 7-2 1h-43l2-5 14-20 14-19 10-14 12-17 10-14 1-8-2-7-11-13-9-11-10-13-9-11-12-14-4-5-12-1-1-5z" fill="#24407D"/>
<path transform="translate(465,355)" d="m0 0 16 4 24 9 16 8 14 9 14 11 12 11 8 8 10 13 10 15 11 23 6 18 5 25v29l-4 16-6 12-9 10-9 7-6 3-2-1 4-6 3-11v-17l-4-12-7-11-5-6-8-7-13-10-15-9-19-9-30-11-1-2 4-23 1-7v-24l-4-24-8-24-8-15z" fill="#24407D"/>
<path transform="translate(1129,708)" d="m0 0h122v32l-1 1-70 1v31l2 6 7 1h34l1 4 1 29-1 1-35 1-9 5v27l4 10 66 1 1 1v30l-2 1h-107l-1-9-1-26-1-77-1-60h-6l-3-3z" fill="#24407D"/>
<path transform="translate(1642,699)" d="m0 0h10l20 2 16 5 11 6 5 5 1 47h-2l-6-8-8-8-10-6-11-4-10-2h-11l-15 3-13 7-9 8-8 14-4 11-1 10v23l2 12 5 12 7 9 9 6 10 4 11 2h21l11-1 16-5 10-6 5-4v40l-9 7-10 5-6 2-19 3h-22l-4-1v-2l-4 1-19-8-11-7-11-9-11-11-9-14-5-10-5-15-2-10v-29l4-18 5-13 7-13 10-13 11-10 14-8 11-5 14-3z" fill="#24407D"/>
<path transform="translate(903,345)" d="m0 0h148l1 1v37l-57 1v163h21v12h-80v-8l1-1h17v-167l-47-1-1 15-4-1v-50z" fill="#24407D"/>
<path transform="translate(183,630)" d="m0 0 3 1-10 9-7 8-10 11-28 38-11 16-14 22-13 20-14 24-13 22-12 21-15 28-3-3-6-19-5-23-4-29v-20l4-12 9-16 9-11 11-11 11-9 8-7 19-13 17-11 18-11 29-15 18-9z" fill="#24407D"/>
<path transform="translate(1477,704)" d="m0 0h52v185l-1 1h-36l-1-1-1-169h-14v-15z" fill="#24407D"/>
<path transform="translate(293,539)" d="m0 0 14 1 13 5 10 9 4 5 7 14 2 12-1 17-8 16-7 8-9 7-11 4-11 1-11-1-11-5-10-7-8-11-4-9-2-7v-18l3-10 5-10 9-10 10-7 9-3zm-2 15-11 4-8 7-5 10-2 7v10l3 10 6 8 8 6 6 3h17l10-5 5-4 6-10 2-11-1-11-4-10-7-8-10-5-4-1z" fill="#25407D"/>
<path transform="translate(323,502)" d="m0 0h38l27 3 34 7 9 2v1l-16 3-17 5-16 8-10 8-7 7-8 11h-2l-4-7-9-11-9-8-16-8-13-3h-17l-13 2-10 2 4-4 14-8 17-6 15-3z" fill="#24407D"/>
<path transform="translate(375,398)" d="m0 0 6 2 22 10 16 8 27 13 9 4-1 3-14 8-15 6-22 6-25 4-18 2h-18l3-3 10-7 10-9 6-9 4-11 1-5v-18z" fill="#24407D"/>
<path transform="translate(247,426)" d="m0 0 2 2 8 16 11 13 11 9 12 7 14 5 12 2 46 1h25l24-1 22-6 16-7 5-3-4 19-1 2-1 14-11-3-26-6-31-4h-48l-25 4-18 5h-5l-11-9-8-9-8-13-6-13-4-13z" fill="#27427E"/>
<path transform="translate(305,363)" d="m0 0h11l11 4 8 7 5 10 1 12-3 10-4 6-7 6-9 4h-13l-10-4-8-7-5-9-1-12 4-13 7-8 10-5zm12 11-5 4-1 2v10l5 6 8 1 6-3 3-4v-9l-5-6-2-1z" fill="#24407D"/>
<path transform="translate(1671,594)" d="m0 0 9 1 10 5 7 8 4 10 1 7-3 12-6 9-6 5-9 4h-10l-10-4-8-8-5-11v-15l4-9 8-9 9-4zm1 10-10 4-5 6-2 6v9l3 8 7 6 3 1h10l7-4 4-5 2-5v-11l-4-8-9-6z" fill="#25417E"/>
<path transform="translate(1372,594)" d="m0 0 9 1 10 5 7 8 4 10v13l-4 10-7 8-6 4-6 2h-10l-10-4-5-4-6-10-2-5v-13l4-11 8-9 9-4zm0 10-9 4-6 8-1 4v9l3 7 5 6 4 2h12l6-4 4-5 2-6v-9l-3-8-7-6-5-2z" fill="#25417D"/>
<path transform="translate(1058,594)" d="m0 0 11 2 8 5 7 8 3 8 1 9-3 12-4 6-5 5-6 4-6 2h-10l-10-4-7-7-5-10-1-4v-11l4-11 7-8 7-4zm-1 10-9 4-6 8-1 5v8l3 7 5 6 5 2h11l6-4 5-6 1-3v-12l-4-8-6-5-6-2z" fill="#25417D"/>
<path transform="translate(1155,595)" d="m0 0h14l10 5 8 9 4 13-1 10-4 9-7 8-6 4-6 2h-10l-10-4-8-8-5-12v-13l4-10 7-8zm5 9-9 4-5 6-2 5v11l4 8 6 5 2 1h12l6-4 4-5 3-8-1-9-5-8-5-4-6-2z" fill="#25417E"/>
<path transform="translate(1705,598)" d="m0 0h15l24 26 4 3 2-29h10v53l-6-1-14-13-12-12-5-2v27l-3 1-7-1-1-48-7-3z" fill="#26417E"/>
<path transform="translate(1441,598)" d="m0 0h14l8 8 7 8 9 10 2 2 4 1v-29h10v53l-6-1-20-20-9-7-1 27-4 1-6-1v-48l-8-2z" fill="#24407D"/>
<path transform="translate(1229,594)" d="m0 0 12 1 6 3 4 5-5 5-4-1-4-3-9-1-8 3-4 5-2 7v12l3 8 5 4 8 2 7-1 1-11-1-2-8-2 1-4h23l1 5h-4v21l-5 3-9 2h-11l-9-4-8-7-5-9-1-4v-15l3-9 7-8 10-4z" fill="#25417E"/>
<path transform="translate(1008,597)" d="m0 0 11 1 1 53-3 1-7-3-7-8-11-12-8-9-4-2-1 32-4 1-5-1v-52l4 2 15 14 13 13 5 1z" fill="#25417D"/>
<path transform="translate(1909,598)" d="m0 0h34l8 4 6 7 3 6v17l-5 10-8 7-10 2h-21l-1-1-1-48-5-2zm20 6-4 1-1 27 1 12h12l8-4 5-6 1-3v-13l-4-7-9-6z" fill="#28447F"/>
<path transform="translate(806,598)" d="m0 0h47l1 7-1 1-15 1-1 43h-14l-1-43-12-1-1 5h-3z" fill="#24407D"/>
<path transform="translate(1970,598)" d="m0 0h37v8l-20 1-1 12h16v9h-16l1 13 20 1v8l-12 1h-18l-1-9v-39l-1-2-5-1z" fill="#294480"/>
<path transform="translate(861,598)" d="m0 0h38v8l-21 1-1 12h16v9l-15 1-1 12 22 1v8l-12 1h-18l-1-1-1-48-6-3z" fill="#25417D"/>
<path transform="translate(1797,597)" d="m0 0 3 3 14 32 6 15v3h-7v-4h-31l-1 5-8-1 10-23 12-28zm-3 20-5 14v5l2 1h13l2-1-1-7-5-10-2-2z" fill="#25417D"/>
<path transform="translate(1582,596)" d="m0 0h13l7 3 2 2v10l-12-6-9 1-6 4-3 6-1 11 2 8 6 5 5 1 13-1 5-2v8l-4 4-8 2-10-1-8-4-5-5-5-8-2-8 1-11 5-10 8-7z" fill="#26427E"/>
<path transform="translate(1531,597)" d="m0 0 3 1 10 23 11 27-1 3-6-1v-3l-31-1-1 5-7-1 3-9zm-1 20-3 5-3 8v5l3 2h13v-7l-6-12z" fill="#26427E"/>
<path transform="translate(930,596)" d="m0 0h15l7 3 1 3v9l-12-6-9 1-7 5-3 7v12l4 8 4 2 12 1 11-3-1 10-6 3-11 1-9-3-8-7-5-8-2-8 1-11 5-10 8-7z" fill="#28437F"/>
<path transform="translate(1311,598)" d="m0 0h16l6 4v11l-8-5-9-1-7 3-5 6-1 3v14l4 7 5 2h15l6-2v9l-3 3-4 1h-14l-8-4-7-7-4-7-1-4v-12l4-10 6-7z" fill="#25417D"/>
<path transform="translate(1095,598)" d="m0 0h13l1 46 22 1 1 5h-31l-1-48-5-2z" fill="#28447F"/>
<path transform="translate(1830,598)" d="m0 0h13l1 46h10l12 1 1 2-1 3h-29l-1-1-1-48-5-1z" fill="#25417E"/>
<path transform="translate(337,634)" d="m0 0h2l1 5 1 16 4 16 5 10 4 4-1 2-9-8-7-8-13-17-2-3 1-4 8-9z" fill="#26427E"/>
<path transform="translate(1619,598)" d="m0 0h14v52h-9l-1-48-4-2z" fill="#24407D"/>
<path transform="translate(1265,597)" d="m0 0 12 1v52h-8l-1-48-5-3z" fill="#24407D"/>
<path transform="translate(270,415)" d="m0 0 3 4 7 10 11 8 11 4h20l18-6 7-4 2 1-7 7-9 6-9 3-5 1h-12l-13-4-9-6-8-8-7-13z" fill="#26427E"/>
<path transform="translate(1200,673)" d="m0 0 5 2 7 6v2l-22 7-3-1 12-14z" fill="#27437F"/>
<path transform="translate(278,591)" d="m0 0h35l1 4-19 1-18-1z" fill="#25417D"/>
<path transform="translate(241,527)" d="m0 0 3 2-1 3-9 1 3-3z" fill="#2B4681"/>
<path transform="translate(1166,582)" d="m0 0h2v3l-4-1z" fill="#3C558B"/>
<path transform="translate(314,670)" d="m0 0" fill="#24407D"/>
<path transform="translate(263,524)" d="m0 0" fill="#24407D"/>
<path transform="translate(455,463)" d="m0 0" fill="#24407D"/>
<path transform="translate(246,425)" d="m0 0" fill="#FEFEFE"/>
<path transform="translate(269,414)" d="m0 0" fill="#24407D"/>
</svg>
